<?xml version="1.0" encoding="UTF-8"?>
<svg width="12px" height="12px" viewBox="0 0 12 12" version="1.1" xmlns="http://www.w3.org/2000/svg" xmlns:xlink="http://www.w3.org/1999/xlink">
    <g id="Page-1" stroke="none" stroke-width="1" fill="none" fill-rule="evenodd">
        <g id="1-账号设置-账户信息" transform="translate(-1236.000000, -214.000000)" fill="#252F3D" fill-rule="nonzero">
            <g id="分组-11" transform="translate(1226.000000, 44.000000)">
                <g id="分组-10" transform="translate(10.000000, 20.000000)">
                    <path d="M6,161.2 C8.8718807,161.2 11.2,158.871881 11.2,156 C11.2,153.128119 8.8718807,150.8 6,150.8 C3.1281193,150.8 0.8,153.128119 0.8,156 C0.8,158.871881 3.1281193,161.2 6,161.2 Z M6,162 C2.6862915,162 0,159.313708 0,156 C0,152.686292 2.6862915,150 6,150 C9.3137085,150 12,152.686292 12,156 C12,159.313708 9.3137085,162 6,162 Z M5.6870166,159.084218 L5.67657423,152.000631 L9.74909645,154.27344 L7.65213909,155.441411 C7.13719999,155.726143 6.82588699,155.241909 6.82588699,155.241909 L8.54626657,154.274703 L6.28027344,153.005718 L6.28027344,160.091199 L2.20579328,157.81839 L4.31515094,156.640949 C4.86598567,156.378945 5.12704479,156.851184 5.12704479,156.851184 L3.40274933,157.81839 L5.6870166,159.084218 Z" id="关于产品icon"></path>
                </g>
            </g>
        </g>
    </g>
</svg>