<?xml version="1.0" encoding="UTF-8"?>
<svg width="12px" height="12px" viewBox="0 0 12 12" version="1.1" xmlns="http://www.w3.org/2000/svg" xmlns:xlink="http://www.w3.org/1999/xlink">
    <g id="Page-1" stroke="none" stroke-width="1" fill="none" fill-rule="evenodd">
        <g id="Artboard" transform="translate(-168.000000, -52.000000)" fill="#FFFFFF" fill-rule="nonzero">
            <g id="地址范围icon" transform="translate(168.000000, 52.000000)">
                <path d="M3.71378761,6.85714286 L2.1831822,6.85714286 L0.898957378,11.1428571 L11.1008112,11.1428571 L9.81658635,6.85714286 L8.28014901,6.85714286 C7.7996337,7.59721404 7.12853071,8.62617655 5.99988428,10.2857143 C4.76092469,8.43002234 4.16565119,7.54487056 3.71378761,6.85714286 Z M8.83898359,6 L9.81658635,6 C10.2179532,6 10.5706914,6.25369484 10.6809554,6.6216676 L11.9651802,10.9073819 C12.1015739,11.3625548 11.8251516,11.8369711 11.3477738,11.9670205 C11.2674596,11.9889001 11.1843392,12 11.1008112,12 L0.898957378,12 C0.402476927,12 0,11.6162441 0,11.1428571 C0,11.0632144 0.0116414254,10.9839603 0.0345883312,10.9073819 L1.31881316,6.6216676 C1.4290771,6.25369484 1.78181539,6 2.1831822,6 L3.15918303,6 C3.15767269,5.99762777 3.15616137,5.99525372 3.15464906,5.99287782 C2.32814644,4.69441445 2.42589223,3.78724888 2.40405476,3.42857143 C2.40405476,1.53502371 4.01396247,0 5.99988428,0 C7.98580608,0 9.59571379,1.53502371 9.59571379,3.42857143 C9.574425,3.77280971 9.73100455,4.65125658 8.84369292,5.99287782 C8.84212444,5.99524938 8.84055467,5.99762343 8.83898359,6 Z M7.07761045,7.07843962 C7.26300955,6.79524975 7.93394278,5.76150396 8.08330173,5.53567222 C8.58891228,4.7711856 8.70123666,4.29132458 8.69503313,3.6202202 C8.69383231,3.49031504 8.6940218,3.44754051 8.69675641,3.42857143 C8.69675641,2.00841064 7.48932563,0.857142857 5.99988428,0.857142857 C4.51044292,0.857142857 3.30301214,2.00841064 3.30150123,3.37889677 C3.30462463,3.43019819 3.30581011,3.47336126 3.30726212,3.55941468 C3.31950985,4.28527626 3.43350872,4.77892753 3.92314391,5.54816085 C3.98882077,5.6513414 4.05208344,5.75018792 4.11490734,5.84777951 C4.13394292,5.87733796 4.13394292,5.87733796 4.1529927,5.90687156 C4.39495755,6.28184978 4.64470135,6.66068191 5.06259596,7.28746129 C5.17871851,7.46162774 5.59750054,8.0882653 6.00426352,8.69694947 C6.39414967,8.11610738 6.74311671,7.58936572 7.07761045,7.07843962 Z M5.99988428,4.71428571 C5.2551636,4.71428571 4.65144821,4.13865182 4.65144821,3.42857143 C4.65144821,2.71849104 5.2551636,2.14285714 5.99988428,2.14285714 C6.74460495,2.14285714 7.34832034,2.71849104 7.34832034,3.42857143 C7.34832034,4.13865182 6.74460495,4.71428571 5.99988428,4.71428571 Z M5.99988428,4.07148374 C6.37227657,4.07148374 6.67416017,3.7836421 6.67416017,3.42857143 C6.67416017,3.07350076 6.37227657,2.78565911 5.99988428,2.78565911 C5.62749198,2.78565911 5.32560838,3.07350076 5.32560838,3.42857143 C5.32560838,3.7836421 5.62749198,4.07148374 5.99988428,4.07148374 Z"></path>
            </g>
        </g>
    </g>
</svg>