<?xml version="1.0" encoding="UTF-8"?>
<svg width="32px" height="33px" viewBox="0 0 32 33" version="1.1" xmlns="http://www.w3.org/2000/svg" xmlns:xlink="http://www.w3.org/1999/xlink">
    <g id="1，云主机-创建云主机" stroke="none" stroke-width="1" fill="none" fill-rule="evenodd" transform="translate(-673.000000, -577.000000)">
        <g id="Group-33" transform="translate(199.000000, 379.000000)" fill="#1CAFC6" fill-rule="nonzero">
            <g id="Group-20" transform="translate(452.000000, 176.000000)">
                <g id="arch" transform="translate(22.000000, 22.000000)">
                    <path d="M29.3546326,27.0798553 L27.1675911,25.3082673 L24.2826326,23.4434325 C24.220524,23.4122989 23.8793099,23.2880211 23.8173035,23.2569901 C25.3580064,23.5005706 27.0208818,24.3158909 28.1448179,24.9353824 L24.701393,18.5016562 L19.1175974,7.31259598 L15.9534824,0.0396991624 L15.1158594,2.09097643 L13.254492,6.75306347 L12.1377125,9.17743079 C13.1621725,10.1863742 14.9111821,11.902568 15.7671565,12.4408661 C16.1627604,12.7438928 15.8602428,12.5458073 16.1859681,12.7671788 C15.1538403,12.3295648 13.7514121,11.6605775 12.7890607,11.0422143 L11.9049712,10.3894862 L11.6723323,10.1564203 C9.4206262,14.5650277 7.35171885,19.0247208 4.87872204,23.2568362 L0.0394121406,31.9749569 L0.0394121406,32.0215291 L3.01735463,30.3431367 C5.20332268,29.0452203 9.68996805,26.9208535 12.6494569,26.6599879 C12.0867987,23.5905861 12.5962939,19.198238 15.8601406,18.6878422 C16.4784665,18.5911588 17.016639,18.9338333 17.3491629,19.1541278 C19.4504281,20.545804 20.0222875,23.7947239 19.4895847,26.6600905 C20.7747987,26.890438 22.0791821,27.2793769 23.3052013,27.7323782 C26.4256613,28.8852952 29.2119617,30.5371189 31.9601278,32.0681525 L29.354377,27.0796501 L29.3546326,27.0798553 Z M9.95082428,32.1189661 L9.95082428,32.0217855 L9.76465176,32.0217855 L9.95082428,32.1189661 Z" id="Shape"></path>
                </g>
            </g>
        </g>
    </g>
</svg>