<?xml version="1.0" encoding="UTF-8"?>
<svg width="26px" height="29px" viewBox="0 0 26 29" version="1.1" xmlns="http://www.w3.org/2000/svg" xmlns:xlink="http://www.w3.org/1999/xlink">
    <g id="Page-1" stroke="none" stroke-width="1" fill="none" fill-rule="evenodd">
        <g id="Group" transform="translate(0.000000, -1.000000)" fill="#000000" fill-rule="nonzero">
            <g id="Group-2" transform="translate(0.000000, 17.333333)">
                <path d="M4.52746667,7.9716 L4.52746667,7.1396 L3.77866667,8.008 C3.46146667,7.6752 3.1772,7.38226667 2.9224,7.1292 L2.9224,11.7988 L1.4248,11.7988 L1.4248,7.74106667 C1.1284,8.07386667 0.8112,8.4084 0.474933333,8.74466667 C0.3328,8.1276 0.173333333,7.53306667 0,6.9628 C0.989733333,5.94013333 1.70733333,4.9816 2.15106667,4.0872 L0.13,4.0872 L0.13,2.55493333 L2.07826667,2.55493333 C1.742,2.04706667 1.3104,1.46986667 0.783466667,0.819866667 L2.06613333,0 C2.4856,0.459333333 2.95706667,1.0348 3.48053333,1.72293333 L2.23253333,2.55493333 L3.9208,2.55493333 L3.9208,3.9208 C3.718,4.4356 3.4528,4.9608 3.1252,5.49466667 C3.63306667,5.89853333 4.09933333,6.29373333 4.52746667,6.6768 L4.52746667,0.52 L11.0274667,0.52 L11.0274667,7.87626667 L9.41026667,7.87626667 L9.41026667,2.05226667 L6.14293333,2.05226667 L6.14293333,7.96986667 L4.52746667,7.96986667 L4.52746667,7.9716 Z M10.2422667,8.29226667 C10.8922667,8.5852 11.4157333,8.80706667 11.8109333,8.95786667 C11.6324,10.2769333 11.4088,11.0448 11.1418667,11.2597333 C10.8749333,11.4746667 10.5542667,11.5838667 10.1833333,11.5838667 L9.01853333,11.5838667 C8.06866667,11.5838667 7.592,11.1522667 7.592,10.2890667 L7.592,8.87466667 C6.98533333,10.0862667 5.94013333,11.0690667 4.45466667,11.8213333 C4.15306667,11.4261333 3.77346667,10.9737333 3.31413333,10.4658667 C4.73546667,9.85226667 5.69746667,9.074 6.1984,8.13106667 C6.69933333,7.18813333 6.942,5.408 6.9264,2.78893333 L8.57826667,2.78893333 C8.55053333,4.5084 8.42226667,5.9228 8.19173333,7.03213333 L9.07746667,7.03213333 L9.07746667,9.74133333 C9.07746667,10.0498667 9.21266667,10.2041333 9.48133333,10.2041333 L9.65986667,10.2041333 C9.84533333,10.2041333 9.97533333,10.1226667 10.0464,9.958 C10.1174667,9.79333333 10.1833333,9.23866667 10.2422667,8.29226667 Z" id="Shape"></path>
                <path d="M14.9430667,5.98346667 L16.1858667,6.4116 C15.8270667,7.47413333 15.4561333,8.39106667 15.0730667,9.15893333 C14.6432,8.9128 14.2410667,8.7152 13.8666667,8.5644 C14.2081333,7.9456 14.5686667,7.08586667 14.9430667,5.98346667 Z M18.6576,6.2088 L19.7478667,6.89866667 L19.7478667,2.83053333 L21.3425333,2.83053333 L21.5297333,1.87893333 L19.4549333,1.87893333 L19.4549333,0.450666667 L25.584,0.450666667 L25.584,1.87893333 L23.0290667,1.87893333 L22.8176,2.83053333 L25.22,2.83053333 L25.22,8.75506667 L23.8368,8.75506667 L23.8368,4.2588 L21.1293333,4.2588 L21.1293333,8.75506667 L19.7461333,8.75506667 L19.7461333,7.20893333 C18.6524,9.30973333 17.0074667,10.8368 14.8130667,11.7884 C14.6016,11.4070667 14.2982667,10.9321333 13.8996,10.3601333 C15.158,9.9632 16.2049333,9.3652 17.0404,8.5644 L16.4198667,8.5644 L16.4198667,5.44786667 L17.8498667,5.44786667 L17.8498667,7.5764 C18.0994667,7.18813333 18.3681333,6.73226667 18.6576,6.2088 Z M13.9464,3.99706667 L14.4733333,3.99706667 L14.4733333,1.05906667 L15.8790667,1.05906667 L15.8790667,3.99706667 L16.5828,3.99706667 L16.5828,0 L18.0128,0 L18.0128,1.6172 L19.2434667,1.6172 L19.2434667,2.9016 L18.0128,2.9016 L18.0128,3.99533333 L19.4428,3.99533333 L19.4428,5.27973333 L13.9464,5.27973333 L13.9464,3.99706667 Z M21.8105333,4.78226667 L23.1816,4.78226667 L23.1816,5.22253333 C23.1816,6.57106667 23.0689333,7.65266667 22.8418667,8.46906667 C23.9113333,9.19013333 24.8577333,9.9008 25.6776,10.5976 L24.6809333,11.752 C23.9702667,11.0864 23.166,10.4156 22.2664,9.74133333 C21.7516,10.478 20.9456,11.1730667 19.8518667,11.8230667 C19.4757333,11.3550667 19.1134667,10.9390667 18.7616,10.5733333 C20.0893333,9.98573333 20.9456,9.30453333 21.3286667,8.528 C21.6493333,7.878 21.8088,6.76693333 21.8088,5.19653333 L21.8088,4.78226667 L21.8105333,4.78226667 Z" id="Shape"></path>
            </g>
            <g id="Group-3" transform="translate(1.733333, 0.000000)">
                <path d="M8.21946667,4.85333333 C7.89186667,4.51186667 7.5504,4.238 7.1916,4.03693333 C6.8328,3.83586667 6.46706667,3.7336 6.0944,3.7336 C5.5796,3.7336 5.122,3.8272 4.7164,4.0144 C4.3108,4.19986667 3.96413333,4.4512 3.6764,4.76146667 C3.38866667,5.07346667 3.17026667,5.43053333 3.02293333,5.83613333 C2.87386667,6.24173333 2.80106667,6.6612 2.80106667,7.09626667 C2.80106667,7.53133333 2.8756,7.95253333 3.02293333,8.3564 C3.17026667,8.762 3.38866667,9.11906667 3.6764,9.42933333 C3.96413333,9.74133333 4.3108,9.9892 4.7164,10.1764 C5.122,10.3618667 5.5796,10.4572 6.0944,10.4572 C6.52946667,10.4572 6.93506667,10.3670667 7.30946667,10.1885333 C7.68213333,10.01 8.00106667,9.74826667 8.26626667,9.4068 L10.1348,11.414 C9.854,11.6948 9.5316,11.9357333 9.16586667,12.1385333 C8.80013333,12.3413333 8.43093333,12.5042667 8.05653333,12.6290667 C7.68386667,12.7538667 7.32506667,12.8422667 6.9836,12.8977333 C6.6404,12.9514667 6.34573333,12.9792 6.09613333,12.9792 C5.25546667,12.9792 4.4616,12.8388 3.71453333,12.5597333 C2.96746667,12.2789333 2.32093333,11.882 1.77666667,11.3689333 C1.23066667,10.8541333 0.8008,10.2370667 0.480133333,9.51253333 C0.159466667,8.788 0,7.982 0,7.09453333 C0,6.20706667 0.159466667,5.40106667 0.4784,4.67826667 C0.797333333,3.95546667 1.22893333,3.33493333 1.77493333,2.82186667 C2.3192,2.3088 2.96573333,1.91186667 3.7128,1.63106667 C4.45986667,1.35026667 5.25373333,1.2116 6.0944,1.2116 C6.81026667,1.2116 7.5296,1.3468 8.25413333,1.62066667 C8.97866667,1.8928 9.61133333,2.3244 10.1573333,2.9172 L8.21946667,4.85333333 Z" id="Shape"></path>
                <path d="M19.4168,4.85333333 C19.0892,4.51186667 18.7477333,4.238 18.3889333,4.03693333 C18.0301333,3.83586667 17.6644,3.7336 17.2917333,3.7336 C16.7769333,3.7336 16.3193333,3.8272 15.9137333,4.0144 C15.5081333,4.19986667 15.1614667,4.4512 14.8737333,4.76146667 C14.586,5.07346667 14.3676,5.43053333 14.2202667,5.83613333 C14.0712,6.24173333 13.9984,6.6612 13.9984,7.09626667 C13.9984,7.53133333 14.0729333,7.95253333 14.2202667,8.3564 C14.3676,8.762 14.586,9.11906667 14.8737333,9.42933333 C15.1614667,9.74133333 15.5081333,9.9892 15.9137333,10.1764 C16.3193333,10.3618667 16.7769333,10.4572 17.2917333,10.4572 C17.7268,10.4572 18.1324,10.3670667 18.5068,10.1885333 C18.8794667,10.01 19.1984,9.74826667 19.4636,9.4068 L21.3321333,11.414 C21.0513333,11.6948 20.7289333,11.9357333 20.3632,12.1385333 C19.9974667,12.3413333 19.6282667,12.5042667 19.2538667,12.6290667 C18.8794667,12.7538667 18.5224,12.8422667 18.1809333,12.8977333 C17.8377333,12.9514667 17.5430667,12.9792 17.2934667,12.9792 C16.4528,12.9792 15.6589333,12.8388 14.9118667,12.5597333 C14.1648,12.2789333 13.5182667,11.882 12.974,11.3689333 C12.428,10.8541333 11.9981333,10.2370667 11.6774667,9.51253333 C11.3568,8.788 11.1973333,7.982 11.1973333,7.09453333 C11.1973333,6.20706667 11.3568,5.40106667 11.6757333,4.67826667 C11.9946667,3.95373333 12.4262667,3.33493333 12.9722667,2.82186667 C13.5165333,2.3088 14.1630667,1.91186667 14.9101333,1.63106667 C15.6572,1.35026667 16.4510667,1.2116 17.2917333,1.2116 C18.0076,1.2116 18.7269333,1.3468 19.4514667,1.62066667 C20.176,1.8928 20.8086667,2.3244 21.3546667,2.9172 L19.4168,4.85333333 Z" id="Shape"></path>
            </g>
        </g>
    </g>
</svg>