<?xml version="1.0" encoding="UTF-8"?>
<svg width="34px" height="32px" viewBox="0 0 34 32" version="1.1" xmlns="http://www.w3.org/2000/svg" xmlns:xlink="http://www.w3.org/1999/xlink">
    <g id="1，云主机-创建云主机" stroke="none" stroke-width="1" fill="none" fill-rule="evenodd" transform="translate(-222.000000, -398.000000)">
        <g id="Group-33" transform="translate(199.000000, 379.000000)" fill="#1CAFC6">
            <g id="Group-32">
                <path d="M39.5061714,32.6203337 L39.5061714,32.651577 L39.89993,32.9960085 L40.2936419,32.651577 L40.2936419,22.7260825 L43.7062006,22.7260825 L39.801467,19 L36.0937994,22.5068018 L35.9297722,22.6946615 L35.9297722,22.7260825 L39.5061714,22.7260825 L39.5061714,32.6203337 Z M30.5155219,26.5773159 L37.8328142,33.5596762 L38.4234054,33.5596762 L38.4234054,32.9960085 L31.1061131,26.0136037 L33.5015166,23.6967128 L27.9562312,23.6967128 L27.9562312,28.9569155 L27.9890833,28.9569155 L30.5155219,26.5773159 Z M41.3765946,32.9960085 L41.3765946,33.5596762 L41.9671858,33.5596762 L49.3827544,26.4834083 L51.8109633,28.8003436 L51.8437688,23.6967128 L46.4625572,23.6967128 L48.7921165,25.9511171 L41.3765946,32.9960085 Z M34.2233762,27.6418537 C35.2304984,28.6025732 36.2349141,29.5614262 37.242223,30.5225012 L38.3905999,31.6184601 L38.3905999,23.727956 L34.8139674,23.727956 C34.139006,24.3721985 32.9907691,25.5617095 32.5172135,26.0136037 C33.1626826,26.6295806 33.7179018,27.1597829 34.2233762,27.6418537 Z M41.3765946,31.6184601 L41.4094001,31.6184601 L41.9343804,31.0547479 L47.2171756,26.0136037 L44.8217721,23.727956 L41.3765946,23.727956 L41.3765946,31.6184601 Z M43.4437104,33.528433 C46.8176306,33.528433 49.2409397,33.5596762 51.8437688,33.5596762 L51.8437688,30.2719773 L49.3827544,27.9236209 L43.4437104,33.528433 Z M36.3562896,33.528433 L30.6141249,28.1114805 C30.5702132,28.0697932 30.5264882,28.0281503 30.4827165,27.9862852 L27.9562312,30.3971282 L27.9562312,33.5596762 L36.3562896,33.5596762 L36.3562896,33.528433 Z M52.8937294,31.2740286 L52.8937294,34.5615498 L42.4265553,34.5615498 L42.0328434,34.9374023 L41.9671858,34.9374023 L42.3609444,35.3443649 L52.860924,35.3443649 L52.8937294,38.5067352 L56.7,34.874738 L52.8937294,31.2740286 Z M37.4390556,35.3443649 C37.8851256,34.9186919 37.8490069,34.9841117 37.4062502,34.5615498 L26.9062706,34.5615498 L26.9062706,31.4306005 L23.1,35.0625977 L26.9062706,38.6633071 L26.9062706,35.3757859 L37.4062502,35.3443649 L37.4390556,35.3443649 Z M27.9562312,39.6966017 L30.4171056,42.0137148 L36.3234841,36.3776594 L27.9562312,36.3776594 L27.9562312,39.6966017 Z M38.4234054,36.9413272 L38.4234054,36.3776594 L37.8328142,36.3776594 C35.3608336,38.7364154 32.8890396,41.0951714 30.4172923,43.4539274 L27.9562312,41.105571 L27.9562312,46.2406229 L33.3374894,46.2406229 L31.0078835,43.9862186 L38.4234054,36.9413272 Z M41.9671858,36.3776594 L41.3765946,36.3776594 L41.3765946,36.9099062 L48.6937002,43.923732 L46.4297051,46.084051 L46.2984834,46.2406229 L51.8109633,46.2406229 L51.8437688,40.9804202 L49.2842914,43.3600198 L41.9671858,36.3776594 Z M51.8109633,39.5400297 L51.8109633,36.3776594 L43.4765159,36.3776594 L49.2842914,41.9196294 L51.8109633,39.5400297 Z M40.3264473,37.3482897 L39.8671246,36.9725705 L39.473366,37.3482897 L39.5061714,47.2426742 L35.8969201,47.2426742 L39.8342725,51 L43.739006,47.2426742 L40.2936419,47.2426742 L40.3264473,37.3482897 Z M38.4234054,38.3502966 L38.3905999,38.3502966 L37.4718611,39.2895058 L32.5172135,44.0488829 L34.8139674,46.2406229 L38.4234054,46.2406229 L38.4234054,38.3502966 Z M45.8061219,42.6086702 L41.3765946,38.3815843 L41.3765946,46.2406229 L44.7561612,46.2406229 L47.1187593,43.9862186 C46.7908449,43.6733859 46.0358066,42.8275954 45.8061219,42.6086702 Z" id="centos"></path>
            </g>
        </g>
    </g>
</svg>