<?xml version="1.0" encoding="UTF-8"?>
<svg width="32px" height="32px" viewBox="0 0 32 32" version="1.1" xmlns="http://www.w3.org/2000/svg" xmlns:xlink="http://www.w3.org/1999/xlink">
    <g id="Page-1" stroke="none" stroke-width="1" fill="none" fill-rule="evenodd">
        <g id="Artboard">
            <path d="M2,4.5 C1.72385763,4.5 1.5,4.72385763 1.5,5 L1.5,21 C1.5,21.2761424 1.72385763,21.5 2,21.5 L23,21.5 C23.2761424,21.5 23.5,21.2761424 23.5,21 L23.5,5 C23.5,4.72385763 23.2761424,4.5 23,4.5 L2,4.5 Z M2,3 L23,3 C24.1045695,3 25,3.8954305 25,5 L25,21 C25,22.1045695 24.1045695,23 23,23 L2,23 C0.8954305,23 1.3527075e-16,22.1045695 0,21 L0,5 C-1.3527075e-16,3.8954305 0.8954305,3 2,3 Z" id="Rectangle" fill="#000000" fill-rule="nonzero"></path>
            <path d="M12.0344426,15.1464001 L17.0265001,15.1464001 L14.5304713,11.3063559 L12.0344426,15.1464001 Z M18.5352261,14.7151646 C18.9114621,15.2939892 18.7472316,16.0682186 18.168407,16.4444546 C17.9656442,16.5762504 17.729004,16.6464001 17.4871716,16.6464001 L11.5737711,16.6464001 C10.8834152,16.6464001 10.3237711,16.086756 10.3237711,15.3964001 C10.3237711,15.1545677 10.3939207,14.9179275 10.5257166,14.7151646 L13.4824168,10.166395 C13.8586528,9.58757049 14.6328823,9.42334 15.2117068,9.79957594 C15.3582858,9.89485231 15.4832495,10.019816 15.5785259,10.166395 L18.5352261,14.7151646 Z" id="Triangle" fill="#000000" fill-rule="nonzero" transform="translate(14.530545, 13.121942) rotate(90.000000) translate(-14.530545, -13.121942) "></path>
            <path d="M27.7565257,14.7168383 L29.8842316,16.9364906 C29.9606674,17.0162296 30.0872721,17.0189072 30.167011,16.9424714 C30.2062459,16.9048618 30.2284851,16.8529043 30.2286111,16.7985551 L30.2457465,9.40987809 C30.2460026,9.29942144 30.1566675,9.20967097 30.0462108,9.2094148 C29.9899107,9.20928424 29.9361631,9.23288924 29.8981658,9.27443352 L27.750546,11.622533 L27.7565257,14.7168383 Z M31.7498961,7.62226728 L31.7246228,18.5200145 C31.7233419,19.0722978 31.2745896,19.5189735 30.7223063,19.5176927 C30.4505602,19.5170625 30.1907728,19.4058664 30.0027248,19.2096922 L26.2576553,15.3027837 L26.249454,11.0588153 L30.011993,6.94504443 C30.384732,6.53751031 31.0172684,6.50930333 31.4248025,6.88204236 C31.6325239,7.07202858 31.7505489,7.34076682 31.7498961,7.62226728 Z" id="Triangle-2" fill="#000000" fill-rule="nonzero"></path>
            <path d="M4.01175613,7.5 L4.01175613,7 L7.7,7 C7.97614237,7 8.2,7.22385763 8.2,7.5 L8.2,8 L4.51175613,8 C4.23561376,8 4.01175613,7.77614237 4.01175613,7.5 Z" id="Line" fill="#000000" fill-rule="nonzero"></path>
            <path d="M4.01175613,9 L4.01175613,8.5 L7.7,8.5 C7.97614237,8.5 8.2,8.72385763 8.2,9 L8.2,9.5 L4.51175613,9.5 C4.23561376,9.5 4.01175613,9.27614237 4.01175613,9 Z" id="Line" fill="#000000" fill-rule="nonzero"></path>
            <path d="M4.01175613,10.5 L4.01175613,10 L7.7,10 C7.97614237,10 8.2,10.2238576 8.2,10.5 L8.2,11 L4.51175613,11 C4.23561376,11 4.01175613,10.7761424 4.01175613,10.5 Z" id="Line" fill="#000000" fill-rule="nonzero"></path>
            <g id="Group" transform="translate(9.000000, 22.000000)" stroke="#000000" stroke-linecap="square" stroke-width="1.5">
                <path d="M5.62250232,1.18313298 L3.4876666,4.44911212" id="Line-2"></path>
                <path d="M0,0.502596368 L3.34798311,5.02537157 L0,0.502596368 Z" id="Line-2"></path>
            </g>
            <rect id="Rectangle-2" stroke="#000000" stroke-width="1.5" x="5.75" y="26.75" width="12.5" height="2.5" rx="1"></rect>
        </g>
    </g>
</svg>