<?xml version="1.0" encoding="UTF-8"?>
<svg width="32px" height="32px" viewBox="0 0 32 32" version="1.1" xmlns="http://www.w3.org/2000/svg" xmlns:xlink="http://www.w3.org/1999/xlink">
    <g id="1，云主机-创建云主机-copy" stroke="none" stroke-width="1" fill="none" fill-rule="evenodd" transform="translate(-675.000000, -666.000000)">
        <g id="Group-33" transform="translate(199.000000, 379.000000)" fill="#1CAFC6" fill-rule="nonzero">
            <g id="Group-17" transform="translate(0.000000, 266.000000)">
                <g id="Group-39" transform="translate(452.000000, 0.000000)">
                    <path d="M40,21 C31.2,21 24,28.2 24,37 C24,45.8 31.2,53 40,53 C48.8,53 56,45.8 56,37 C56,28.2 48.8,21 40,21 Z M46,41.1333333 C45.8666667,41.1333333 45.7333333,41.1333333 45.6,41.1333333 C44.4,41.2666667 43.0666667,41.4 41.7333333,41.4 C41.2,41.4 40.5333333,41.4 40,41.4 C39.3333333,41.4 38.8,41.4 38.2666667,41.4 C36.9333333,41.4 35.6,41.2666667 34.4,41.1333333 C34.2666667,40.2 34.2666667,39.2666667 34.1333333,38.3333333 C34.1333333,37.9333333 34.1333333,37.4 34.1333333,37 C34.1333333,36.6 34.1333333,36.0666667 34.1333333,35.6666667 C34.1333333,34.7333333 34.2666667,33.8 34.4,32.8666667 C34.4,32.7333333 34.4,32.4666667 34.5333333,32.3333333 C35.3333333,26.6 37.4666667,22.4666667 40.1333333,22.4666667 C48,22.4666667 54.5333333,29 54.5333333,37 C54.5333333,38.8666667 51.0666667,40.3333333 46,41.1333333 Z M46,32.8666667 C45.8666667,32.6 45.7333333,32.4666667 45.4666667,32.2 C44.1333333,30.6 42.1333333,29.6666667 39.8666667,29.6666667 C39.2,29.6666667 38.5333333,30.7333333 38.1333333,32.4666667 C38,33.1333333 37.8666667,33.9333333 37.7333333,34.7333333 C37.7333333,35.4 37.6,36.0666667 37.6,36.8666667 C37.6,37.6666667 37.6,38.3333333 37.7333333,39 C38.4,39 39.0666667,39.1333333 39.8666667,39.1333333 C40.6666667,39.1333333 41.3333333,39.1333333 42,39 C43.4666667,38.8666667 44.8,38.6 45.7333333,38.2 C46.6666667,37.8 47.2,37.4 47.2,36.8666667 C47.2,35.5333333 46.8,34.0666667 46,32.8666667 Z" id="Shape"></path>
                </g>
            </g>
        </g>
    </g>
</svg>