<?xml version="1.0" encoding="UTF-8"?>
<svg width="18px" height="18px" viewBox="0 0 18 18" version="1.1" xmlns="http://www.w3.org/2000/svg" xmlns:xlink="http://www.w3.org/1999/xlink">
    <g id="Page-1" stroke="none" stroke-width="1" fill="none" fill-rule="evenodd">
        <g id="4" transform="translate(-250.000000, -225.000000)" fill="#1CAFC6" fill-rule="nonzero">
            <g id="分组-copy" transform="translate(250.000000, 178.000000)">
                <g id="分组-4" transform="translate(0.000000, 40.000000)">
                    <g id="cpu" transform="translate(0.000000, 7.000000)">
                        <path d="M12.459527,4.84864865 L5.54047297,4.84864865 C5.15833784,4.84864865 4.84864865,5.15839865 4.84864865,5.54047297 L4.84864865,12.459527 C4.84864865,12.8416622 5.15837838,13.1513514 5.54047297,13.1513514 L12.459527,13.1513514 C12.8416622,13.1513514 13.1513514,12.8416216 13.1513514,12.459527 L13.1513514,5.54047297 C13.1513514,5.15835811 12.8416216,4.84864865 12.459527,4.84864865 Z" id="Shape"></path>
                        <path d="M17.2974122,9.69230145 C17.6795068,9.69230145 17.9891757,9.38234479 17.9891757,9 C17.9891757,8.61757408 17.6794662,8.30769855 17.2974122,8.30769855 L15.9135,8.30769855 L15.9135,6.23077391 L17.2974122,6.23077391 C17.6795068,6.23077391 17.9891757,5.92081725 17.9891757,5.53847246 C17.9891757,5.15604654 17.6794662,4.84617101 17.2974122,4.84617101 L15.9135,4.84617101 L15.9135,3.46154782 C15.9135,2.69677712 15.2939595,2.07692464 14.5297095,2.07692464 L13.1459189,2.07692464 L13.1459189,0.692179757 C13.1459189,0.309855251 12.8361486,0 12.4540338,0 C12.0718378,0 11.7621486,0.309895816 11.7621486,0.692179757 L11.7621486,2.07692464 L9.68647297,2.07692464 L9.68647297,0.692179757 C9.68647297,0.309855251 9.3767027,0 8.99458784,0 C8.61239189,0 8.3027027,0.309895816 8.3027027,0.692179757 L8.3027027,2.07692464 L6.22702703,2.07692464 L6.22702703,0.692179757 C6.22702703,0.309855251 5.91725676,0 5.53514189,0 C5.15294595,0 4.84325676,0.309895816 4.84325676,0.692179757 L4.84325676,2.07692464 L3.45946622,2.07692464 C2.69515541,2.07692464 2.07567568,2.69683796 2.07567568,3.46154782 L2.07567568,4.84617101 L0.691763514,4.84617101 C0.309668919,4.84617101 0,5.15612767 0,5.53847246 C0,5.92089838 0.309709459,6.23077391 0.691763514,6.23077391 L2.07567568,6.23077391 L2.07567568,8.30769855 L0.691763514,8.30769855 C0.309668919,8.30769855 0,8.61765521 0,9 C0,9.38242592 0.309709459,9.69230145 0.691763514,9.69230145 L2.07567568,9.69230145 L2.07567568,11.7692261 L0.691763514,11.7692261 C0.309668919,11.7692261 0,12.0791828 0,12.4615275 C0,12.8439535 0.309709459,13.153829 0.691763514,13.153829 L2.07567568,13.153829 L2.07567568,14.5384522 C2.07567568,15.3032229 2.69521622,15.9230754 3.45946622,15.9230754 L4.84325676,15.9230754 L4.84325676,17.3078202 C4.84325676,17.6901447 5.15302703,18 5.53514189,18 C5.91733784,18 6.22702703,17.6901042 6.22702703,17.3078202 L6.22702703,15.9230754 L8.3027027,15.9230754 L8.3027027,17.3078202 C8.3027027,17.6901447 8.61247297,18 8.99458784,18 C9.37678378,18 9.68647297,17.6901042 9.68647297,17.3078202 L9.68647297,15.9230754 L11.7621486,15.9230754 L11.7621486,17.3078202 C11.7621486,17.6901447 12.0719189,18 12.4540338,18 C12.8362297,18 13.1459189,17.6901042 13.1459189,17.3078202 L13.1459189,15.9230754 L14.5297095,15.9230754 C15.2940203,15.9230754 15.9135,15.303162 15.9135,14.5384522 L15.9135,13.153829 L17.2974122,13.153829 C17.6795068,13.153829 17.9891757,12.8438723 17.9891757,12.4615275 C17.9891757,12.0791016 17.6794662,11.7692261 17.2974122,11.7692261 L15.9135,11.7692261 L15.9135,9.69230145 L17.2974122,9.69230145 Z M14.5297297,14.5384725 L4.15143243,14.5384725 C3.76927703,14.5384725 3.45944595,14.2284752 3.45944595,13.8460696 L3.45944595,3.46152754 L13.8377432,3.46152754 C14.2199189,3.46152754 14.5297297,3.77152477 14.5297297,4.1539304 L14.5297297,14.5384725 Z" id="Shape"></path>
                    </g>
                </g>
            </g>
        </g>
    </g>
</svg>