<?xml version="1.0" encoding="UTF-8"?>
<svg width="26px" height="31px" viewBox="0 0 26 31" version="1.1" xmlns="http://www.w3.org/2000/svg" xmlns:xlink="http://www.w3.org/1999/xlink">
    <g id="1，云主机-创建云主机" stroke="none" stroke-width="1" fill="none" fill-rule="evenodd" transform="translate(-450.000000, -577.000000)">
        <g id="Group-33" transform="translate(199.000000, 379.000000)" fill="#1CAFC6" fill-rule="nonzero">
            <g id="Group-19" transform="translate(226.000000, 176.000000)">
                <g id="debian" transform="translate(25.000000, 22.000000)">
                    <path d="M22.5551129,13.4573671 C22.5799595,14.2567327 22.305906,14.6443704 22.0567344,15.3470667 L21.6083667,15.5651816 C21.2594206,16.2675691 21.6580952,16.0011368 21.3840417,16.5585033 C20.8110882,17.0430848 19.6648636,18.108917 19.2911062,18.2058951 C19.0170528,18.1817363 19.4654205,17.891111 19.5403131,17.7699399 C18.7678812,18.2786801 18.9173489,18.5451467 17.7465953,18.8357721 L17.7217487,18.7629527 C14.8314995,20.0952516 10.8202251,17.4789713 10.8702712,13.91803 C10.8454246,14.1361449 10.7953786,14.0875186 10.7208035,14.1603379 C10.5713359,12.3434576 11.5929747,10.5023842 13.3118351,9.7513704 C15.0061313,8.9278118 16.9741987,9.2667889 18.1701164,10.3570887 C17.5222702,9.5090625 16.2017667,8.61271885 14.6320563,8.70969694 C13.1123567,8.73385568 11.6672673,9.67885994 11.1937354,10.6960658 C10.4213035,11.1806473 10.3215643,12.5371049 9.97293585,12.8035715 C9.52456816,16.0739218 10.845107,17.5031987 13.0875101,19.1747492 C13.4364209,19.3928641 13.1872493,19.4412159 13.2369425,19.6107044 C12.4893571,19.2714185 11.8166997,18.7626782 11.2437462,18.1330757 C11.5426462,18.5690309 11.8667105,18.9807931 12.2902316,19.295886 C11.5678457,19.0535781 10.6459462,17.6484943 10.3718927,17.5759838 C11.5678105,19.6834895 15.2801848,21.2825638 17.1985236,20.4831982 C16.3015059,20.507357 15.1804455,20.507357 14.158842,20.1439123 C13.7353562,19.9257974 13.1620851,19.4898422 13.2618243,19.4170229 C15.9277133,20.3617183 18.6433306,20.1439123 20.9354622,18.3511907 C21.5084157,17.9152355 22.1562618,17.1641874 22.3308584,17.1641874 C22.0568049,17.5517908 22.3805868,17.3578346 22.1565442,17.6971206 C22.7543442,16.800777 21.9073373,17.3336759 22.7543442,16.1467069 L23.0784085,16.5584691 C22.9538227,15.8074209 24.0500012,14.8868843 23.9254154,13.6999153 C24.1746223,13.3364706 24.1994688,14.0875187 23.950262,14.935236 C24.3240546,13.9905406 24.0500012,13.8452108 24.1494228,13.0700039 C24.249162,13.3364706 24.3737478,13.6029372 24.4483228,13.8935625 C24.1991159,12.9730258 24.6726478,12.3673076 24.7972689,11.8343743 C24.6726831,11.7860225 24.4234762,12.2461364 24.3737831,11.1803042 C24.3986296,10.7201903 24.5232507,10.9379963 24.5480973,10.8168595 C24.4732046,10.7685078 24.2243507,10.4292561 24.0745654,9.75102734 C24.1743046,9.58153879 24.3486189,10.1627895 24.4980512,10.1869825 C24.4231586,9.62989054 24.2488443,9.21781954 24.2488443,8.80605739 C23.8253585,7.93387248 24.0993767,8.92719419 23.7504659,8.44261269 C23.276934,7.06168754 24.1242585,8.10336103 24.1739517,7.49760843 C24.871491,8.46677143 25.2701302,9.96855883 25.4444444,10.5984701 C25.2949768,9.82326329 25.0955336,9.09668274 24.8214802,8.36979334 C25.020641,8.4667714 24.4725341,6.81937964 25.0955336,7.90937058 C24.4228409,5.55955698 22.280177,3.37923193 20.3118274,2.36175152 C20.5610343,2.57986638 20.8599343,2.84633302 20.7601951,2.89468477 C19.7634381,2.31343407 19.93807,2.26477343 19.8134489,2.04696743 C19.0161704,1.73218334 18.966442,2.07112617 18.4180527,2.04696743 C16.9232349,1.27176058 16.6243349,1.34427107 15.2537853,0.859964121 L15.3035137,1.15058947 C14.3070744,0.811303512 14.1576067,1.27172627 13.0611106,1.15058947 C13.0113821,1.10196317 13.4100214,0.956633323 13.7586498,0.908281569 C12.7870571,1.02941837 12.8367856,0.738793017 11.8900394,0.956633323 C12.1159173,0.787762448 12.3648066,0.690784391 12.6139782,0.545454545 C11.8415462,0.5938063 10.7453677,1.0058773 11.0694319,0.642432603 C9.79862156,1.1995246 7.53137187,1.97473145 6.23599723,3.13754171 L6.21115064,2.87107506 C5.6133506,3.54930386 3.64500093,4.93026331 3.49553326,5.80244822 L3.34606559,5.85107452 C3.02200134,6.33565602 2.82284056,6.91690673 2.59848024,7.42568127 C2.19984097,8.07975132 2.00036255,7.66798918 2.07525521,7.78912597 C1.27797671,9.33953968 0.879337445,10.6235211 0.555555556,11.6893533 C0.804762435,12.0286392 0.555555556,13.796859 0.655294767,15.1778184 C0.25633799,22.1058479 5.63784433,28.8163115 11.5177291,30.3667252 C12.3895826,30.6573506 13.660393,30.6573506 14.7565716,30.6818182 C13.4609146,30.3183735 13.3114469,30.4881709 12.0409542,30.0760999 C11.1439365,29.6401447 10.9447757,29.1797562 10.2969295,28.646823 L10.570983,29.0827782 C9.30049024,28.646823 9.82339765,28.5256862 8.80211179,28.234752 L9.07616526,27.8713073 C8.677526,27.8471485 8.0048333,27.2172372 7.80567249,26.8537925 L7.38218667,26.8779513 C6.83407977,26.2238812 6.56006159,25.7634585 6.58490818,25.4003226 L6.43544051,25.6667892 C6.26112629,25.4003226 4.46709084,23.2441906 5.38895513,23.7529308 C5.21464091,23.607601 4.99031586,23.5106229 4.74110898,23.050509 L4.94058744,22.8323941 C4.49221975,22.2753021 4.09358052,21.5484127 4.11846236,21.3061392 C4.36766924,21.6209232 4.54194818,21.6937426 4.69141585,21.7423689 C3.57035546,19.0049519 3.49549808,21.597039 2.64849116,18.9563256 L2.82280538,18.9321668 C2.67333772,18.7382107 2.59848037,18.4962116 2.47389458,18.2780968 L2.57363379,17.5270487 C1.7515087,16.606512 2.32442691,13.6026626 2.44904799,11.9552365 C2.52394065,11.3011665 3.14658727,10.5743114 3.59495496,9.46012744 L3.3209015,9.41150114 C3.84412653,8.51515749 6.36058313,5.77774048 7.53133666,5.92303599 C8.07944356,5.24480719 7.40675086,5.92303599 7.30701165,5.75354743 C8.55265783,4.49375908 8.92645051,4.85720379 9.7737398,4.63905462 C10.6707575,4.13031442 9.00130789,4.83301077 9.4247937,4.44540733 C10.9696576,4.05780389 10.5209722,3.57322242 12.5642146,3.37957513 C12.7633754,3.47655319 12.0658361,3.54906368 11.8915219,3.69466808 C13.1871788,3.08894978 15.9776889,3.23424532 17.8211351,4.05811278 C19.9389524,5.00280818 22.3059413,7.86136202 22.4056806,10.5262685 L22.5054198,10.5504273 C22.4556914,11.6162595 22.679734,12.8518891 22.2810948,13.9902318 L22.5551129,13.4573671 Z" id="Shape"></path>
                </g>
            </g>
        </g>
    </g>
</svg>