<svg id="图层_1" data-name="图层 1" xmlns="http://www.w3.org/2000/svg" viewBox="0 0 19.74 20"><defs><style>.cls-1,.cls-2{fill:#8fbf76;}.cls-1{fill-rule:evenodd;}.cls-3{fill:#fff;}</style></defs><title>txt</title><path class="cls-1" d="M15.78,0v3a.73.73,0,0,0,.73.72h3Z"/><path class="cls-1" d="M19.39,4.52H16.21a1.33,1.33,0,0,1-1.27-1.38V0H7.3a2,2,0,0,0-2,2V8h1V2a1,1,0,0,1,1-1h6.64V3.14a2.33,2.33,0,0,0,2.27,2.38h2.53V18a1,1,0,0,1-1,1H7.3a1,1,0,0,1-1-1V17h-1v1a2,2,0,0,0,2,2H17.74a2,2,0,0,0,2-2V4.52Z"/><path class="cls-2" d="M15,8H2a2,2,0,0,0-2,2v5a2,2,0,0,0,2,2H15a2,2,0,0,0,2-2V10A2,2,0,0,0,15,8Z"/><path class="cls-3" d="M2.05,14.8V10.26H3.62C5.23,10.26,6,11,6,12.47a2.21,2.21,0,0,1-.68,1.69,2.41,2.41,0,0,1-1.74.64Zm1-3.75v3h.53a1.43,1.43,0,0,0,1.08-.41A1.57,1.57,0,0,0,5,12.49a1.37,1.37,0,0,0-.41-1.06,1.52,1.52,0,0,0-1.07-.38Z"/><path class="cls-3" d="M6.52,12.59a2.49,2.49,0,0,1,.62-1.74,2.17,2.17,0,0,1,1.65-.67,2,2,0,0,1,1.56.65,2.35,2.35,0,0,1,.6,1.66,2.44,2.44,0,0,1-.62,1.73,2.11,2.11,0,0,1-1.62.66,2.09,2.09,0,0,1-1.58-.64A2.29,2.29,0,0,1,6.52,12.59Zm1-.05a1.75,1.75,0,0,0,.31,1.08,1.06,1.06,0,0,0,.88.42,1.1,1.1,0,0,0,.89-.4,1.72,1.72,0,0,0,.31-1.09,1.81,1.81,0,0,0-.31-1.12A1,1,0,0,0,8.76,11a1.08,1.08,0,0,0-.9.42A1.73,1.73,0,0,0,7.54,12.54Z"/><path class="cls-3" d="M15,14.63a2.82,2.82,0,0,1-1.29.25A2.17,2.17,0,0,1,12,14.26a2.23,2.23,0,0,1-.6-1.63,2.38,2.38,0,0,1,.67-1.76,2.33,2.33,0,0,1,1.74-.69,3,3,0,0,1,1.11.18v.93a2,2,0,0,0-1-.27,1.38,1.38,0,0,0-1.07.43,1.57,1.57,0,0,0-.39,1.11,1.52,1.52,0,0,0,.37,1.07,1.36,1.36,0,0,0,1,.41,2.18,2.18,0,0,0,1.1-.29Z"/></svg>