<svg id="图层_1" data-name="图层 1" xmlns="http://www.w3.org/2000/svg" viewBox="0 0 19.74 20"><defs><style>.cls-1,.cls-2{fill:#8fbf76;}.cls-1{fill-rule:evenodd;}.cls-3{fill:#fff;}</style></defs><title>txt</title><path class="cls-1" d="M15.78,0v3a.73.73,0,0,0,.73.72h3Z"/><path class="cls-1" d="M19.39,4.52H16.21a1.33,1.33,0,0,1-1.27-1.38V0H7.3a2,2,0,0,0-2,2V8h1V2a1,1,0,0,1,1-1h6.64V3.14a2.33,2.33,0,0,0,2.27,2.38h2.53V18a1,1,0,0,1-1,1H7.3a1,1,0,0,1-1-1V17h-1v1a2,2,0,0,0,2,2H17.74a2,2,0,0,0,2-2V4.52Z"/><path class="cls-2" d="M15,8H2a2,2,0,0,0-2,2v5a2,2,0,0,0,2,2H15a2,2,0,0,0,2-2V10A2,2,0,0,0,15,8Z"/><path class="cls-3" d="M1.83,14.28v-3.5H3c1.24,0,1.86.57,1.86,1.7a1.72,1.72,0,0,1-.52,1.31A1.9,1.9,0,0,1,3,14.28Zm.74-2.89v2.28H3a1.1,1.1,0,0,0,.83-.32,1.18,1.18,0,0,0,.3-.85,1,1,0,0,0-.32-.82A1.17,1.17,0,0,0,3,11.39Z"/><path class="cls-3" d="M5.26,12.58a1.88,1.88,0,0,1,.48-1.34A1.66,1.66,0,0,1,7,10.72a1.55,1.55,0,0,1,1.2.5,1.8,1.8,0,0,1,.46,1.28,1.89,1.89,0,0,1-.47,1.33A1.63,1.63,0,0,1,7,14.34a1.62,1.62,0,0,1-1.22-.5A1.75,1.75,0,0,1,5.26,12.58Zm.79-.05a1.39,1.39,0,0,0,.24.84.89.89,0,0,0,1.36,0,1.32,1.32,0,0,0,.24-.83,1.37,1.37,0,0,0-.24-.86A.75.75,0,0,0,7,11.37a.82.82,0,0,0-.69.32A1.33,1.33,0,0,0,6.05,12.53Z"/><path class="cls-3" d="M11.75,14.15a2.29,2.29,0,0,1-1,.19,1.65,1.65,0,0,1-1.25-.48A1.71,1.71,0,0,1,9,12.6a1.86,1.86,0,0,1,.52-1.35,1.81,1.81,0,0,1,1.34-.53,2.32,2.32,0,0,1,.85.14v.72a1.52,1.52,0,0,0-.8-.21,1.08,1.08,0,0,0-.82.33,1.19,1.19,0,0,0-.3.85,1.15,1.15,0,0,0,.29.83,1,1,0,0,0,.78.31,1.61,1.61,0,0,0,.85-.22Z"/><path class="cls-3" d="M15.18,14.28h-.89l-.62-1.16a.7.7,0,0,1-.07-.23h0a1.61,1.61,0,0,1-.08.23l-.63,1.16H12l1.12-1.75-1-1.75H13l.52,1.07a2,2,0,0,1,.11.29h0l.11-.3.58-1.06h.83L14.1,12.51Z"/></svg>