<?xml version="1.0" encoding="utf-8"?>
<svg version="1.1" id="图层_1" xmlns="http://www.w3.org/2000/svg" xmlns:xlink="http://www.w3.org/1999/xlink" x="0px" y="0px"
	 viewBox="0 0 32 32" style="enable-background:new 0 0 32 32;" xml:space="preserve">
<style type="text/css">
	.st0{fill:#939BA3;}
</style>
<g id="_x31__xFF0C_对象存储" transform="translate(-516.000000, -249.000000)">
	<g id="Group-24" transform="translate(499.000000, 239.000000)">
		<g id="回收站" transform="translate(17.000000, 10.000000)">
			<path id="Shape" class="st0" d="M18.7,26.7c-0.6,0-1.1-0.6-1.1-1.4V11.9c0-0.8,0.5-1.4,1.1-1.4s1.1,0.6,1.1,1.4v13.4
				C19.8,26.1,19.4,26.7,18.7,26.7z M12.1,26.5c-0.6,0-1.1-0.6-1.1-1.4V11.8c0-0.8,0.5-1.4,1.1-1.4s1.1,0.6,1.1,1.4v13.3
				C13.2,25.9,12.7,26.5,12.1,26.5z M22.2,32h-13c-1.7,0-3-1.4-3.1-3.2L4.8,10.9c0-0.8,0.6-1.6,1.3-1.6s1.5,0.6,1.5,1.4l1.3,17.9
				c0,0.2,0.2,0.4,0.4,0.4h13c0.2,0,0.4-0.2,0.4-0.4l1.1-18.1c0-0.8,0.7-1.4,1.5-1.4s1.3,0.8,1.3,1.6l-1.1,18.1
				C25.4,30.6,23.9,32,22.2,32z M27.4,6.9H3.4c-0.7,0-1.3-0.5-1.3-1.3s0.6-1.3,1.3-1.3h5.2V3.1C8.5,1.3,9.8,0,11.7,0h7.4
				c1.7,0,3.1,1.4,3.1,3.1v1.3h5.2c0.7,0,1.3,0.5,1.3,1.3S28.2,6.9,27.4,6.9z M10.9,4.6h8.9V2.9c0-0.3-0.2-0.7-0.4-0.7h-7.9
				c-0.2,0-0.4,0.3-0.4,0.7v1.6H10.9z"/>
		</g>
	</g>
</g>
</svg>
