<?xml version="1.0" encoding="UTF-8"?>
<svg width="20px" height="18px" viewBox="0 0 20 18" version="1.1" xmlns="http://www.w3.org/2000/svg" xmlns:xlink="http://www.w3.org/1999/xlink">
    <g id="Page-1" stroke="none" stroke-width="1" fill="none" fill-rule="evenodd">
        <g id="2" transform="translate(-424.000000, -431.000000)" fill="#01AFC9" fill-rule="nonzero">
            <g id="Group-33" transform="translate(250.000000, 366.000000)">
                <g id="Group-18" transform="translate(154.000000, 54.000000)">
                    <g id="EPC-SUSE" transform="translate(20.000000, 11.000000)">
                        <path d="M3.31948457,11.2249805 C1.69176409,10.9989879 0.335330355,9.19104736 0.538795434,7.38310677 C0.674438814,5.49983533 1.89522917,3.99321817 3.18384121,2.93858618 C5.2184918,1.35663816 7.66007252,0.377337021 10.1694749,0.603329572 C11.661552,0.603329572 13.1536291,0.979983868 14.5778845,1.43196901 C14.4422412,0.0760135748 16.0699616,1.28130729 16.7481785,1.20597644 C17.6298604,1.50729987 18.8506508,1.73329244 19.1219375,2.86325531 C19.5288676,3.61656388 19.7323327,4.67119589 18.6471857,4.82185761 C17.3585737,5.34917361 16.1377833,4.29454162 15.0526363,3.69189475 C15.1882797,4.14387989 15.2561014,4.59586504 15.7308532,4.67119589 C16.7481785,5.27384276 18.0367905,5.72582791 19.1219375,5.04785019 C19.9357978,4.74652676 18.9184725,6.17781305 18.4437207,6.02715133 C17.1551086,6.6297982 15.7308532,6.47913648 14.3065978,6.32847478 C13.1536291,6.32847478 13.4249159,8.06108451 13.8996677,8.81439308 C14.1709544,9.26637823 14.3744195,9.71836338 13.7640243,9.26637823 C12.746699,8.96505481 12.1363038,7.98575364 11.3902653,7.23244507 C10.576405,6.4791365 9.15214961,6.32847478 8.54175443,7.30777592 C8.2704677,7.91042279 8.40611105,8.58840051 8.40611105,9.19104736 C7.99918094,8.96505478 7.59225082,8.73906221 7.2531424,8.51306964 C6.98185566,6.70512905 5.42195686,5.12318104 3.72641469,5.42450448 C2.43780265,5.49983533 1.42047735,7.08178335 1.96305085,8.43773879 C2.30215929,9.71836338 3.72641471,10.2456794 4.74373998,9.71836338 C5.76106528,9.19104738 5.42195684,7.30777592 4.26898819,7.23244507 C3.25166289,6.93112165 3.25166289,8.73906223 4.26898819,8.21174621 C5.35413516,8.81439308 3.59077133,9.71836338 3.11601951,8.96505478 C2.23433759,8.36240792 2.43780265,6.7804599 3.38730627,6.40380563 C4.81156168,5.65049706 6.43928216,7.23244507 6.30363878,8.88972393 C6.10017372,10.6223337 4.60809662,11.526304 3.31948457,11.2249805 Z M18.1046122,4.36987247 C19.1897592,3.91788732 18.7828291,1.88395416 17.6298604,2.03461588 C16.5447135,1.95928503 16.0699616,3.76722562 17.0194653,4.29454162 C17.290752,4.59586504 17.7655038,4.59586504 18.1046122,4.36987247 Z M17.3585737,4.06854904 C16.1377833,3.6165639 17.290752,1.65796159 18.1724339,2.63726273 C18.7150074,3.31524045 18.1046122,4.44520332 17.3585737,4.06854904 Z M17.9689689,3.2399096 C18.3080773,2.33593931 16.6803568,3.2399096 17.7655038,3.31524045 L17.9011472,3.31524045 L17.9689689,3.2399096 Z M6.30363878,17.1761183 C5.2184918,17.0254566 5.2184918,15.5941703 5.28631348,14.6902 C5.28631348,14.3135457 5.2184918,13.8615605 5.35413516,13.5602371 C6.1679954,12.7315977 6.6427472,14.0875531 6.43928216,14.9161926 C6.50710384,15.217516 6.37146048,15.6695011 6.50710384,15.9708246 C6.7105689,16.3474789 7.1853207,16.1214863 7.52442914,16.1968171 C7.86353758,16.1968171 8.2704677,16.3474789 8.47393275,15.9708246 C8.54175443,15.1421851 8.40611107,14.3135457 8.60957611,13.5602371 C9.76254479,12.8069286 9.76254479,14.6902 9.62690141,15.4435086 C9.62690141,15.9708246 9.69472309,16.5734714 9.55907973,17.1007874 C9.08432793,17.7787651 8.67739781,16.8747949 8.202646,16.9501257 C7.6600725,17.1007874 6.98185564,17.4021109 6.30363878,17.1761183 Z M0.742260494,17.1007874 C0.606617114,16.8747949 0.403152055,15.9708246 0.945725553,16.1214863 L3.25166289,16.1214863 C4.06552313,15.0668543 2.57344603,14.9161926 1.89522915,15.0668543 C0.945725533,15.217516 0.335330355,14.0875531 0.606617114,13.1835828 C0.742260494,12.2042817 1.75958579,11.9782891 2.50562433,12.05362 C3.11601951,12.1289508 4.47245324,11.6769657 4.20116651,12.8822594 C4.20116651,13.2589137 3.65859301,12.9575903 3.38730627,13.0329211 C2.77691109,13.108252 1.48829905,12.7315977 1.69176409,13.8615605 C2.43780265,14.3888765 3.65859301,13.7108988 4.33680986,14.5395383 C4.74373998,15.3681777 4.6759183,16.6488023 3.79423639,17.1007874 C3.38730627,17.32678 2.91255447,17.1761183 2.43780265,17.2514491 L0.810082174,17.2514491 C0.810082174,17.1761183 0.742260494,17.1007874 0.742260494,17.1007874 Z M10.576405,17.1007874 C10.4407616,16.8747949 10.2372966,15.9708246 10.7798701,16.1214863 L13.0858074,16.1214863 C13.8996677,15.1421851 12.5432339,14.8408617 11.8650171,15.0668543 C10.9155134,15.2928468 10.1694749,14.2382148 10.4407616,13.2589137 C10.576405,12.1289508 11.7293737,11.9782891 12.5432339,12.05362 C13.0179857,12.05362 13.4927376,11.9782891 13.8996677,12.1289508 C14.1709544,12.2796125 14.3065978,13.2589137 13.8996677,13.108252 C13.1536291,13.108252 12.4754122,13.0329211 11.7293737,13.1835828 C10.9833351,14.4642074 12.8823424,14.0122223 13.4927375,14.162884 C14.5100628,14.2382148 14.5778845,15.6695011 14.3065978,16.4981406 C14.035311,17.0254566 13.5605592,17.32678 13.0179857,17.2514491 L10.7798701,17.2514491 C10.6442267,17.1761183 10.576405,17.1007874 10.576405,17.1007874 Z M17.3585737,15.0668543 C18.0367905,14.9915234 18.7828291,15.2928468 19.3254026,14.8408617 C19.5966893,13.9368914 19.5966893,12.5056051 18.6471857,12.1289508 C17.7655038,12.05362 16.8160002,11.9782891 15.8664966,12.2042817 C14.9848147,12.6562668 15.1882797,13.9368914 15.1882797,14.7655308 C15.1882797,15.5941703 15.120458,16.7241332 16.00214,17.1007874 C16.7481785,17.2514491 17.5620388,17.1761183 18.3080773,17.1761183 C18.8506508,17.2514491 18.7828291,16.4981406 18.7828291,16.1214863 L17.290752,16.1214863 C16.5447134,16.3474789 16.205605,15.8201629 16.3412484,15.0668543 L17.3585737,15.0668543 Z M16.3412484,13.2589137 C16.8838219,12.9575903 18.375899,12.7315977 18.375899,13.7862297 L18.375899,14.0875531 L16.7481785,14.0875531 C16.205605,14.2382148 16.205605,13.7108988 16.3412484,13.2589137 Z" id="Shape"></path>
                    </g>
                </g>
            </g>
        </g>
    </g>
</svg>