<?xml version="1.0" encoding="UTF-8"?>
<svg width="32px" height="32px" viewBox="0 0 32 32" version="1.1" xmlns="http://www.w3.org/2000/svg" xmlns:xlink="http://www.w3.org/1999/xlink">
    <g id="1，云主机-创建云主机" stroke="none" stroke-width="1" fill="none" fill-rule="evenodd" transform="translate(-447.000000, -489.000000)">
        <g id="Group-33" transform="translate(199.000000, 379.000000)" fill="#1CAFC6" fill-rule="nonzero">
            <g id="Group-30" transform="translate(226.000000, 88.000000)">
                <g id="fedora" transform="translate(22.000000, 22.000000)">
                    <path d="M16,0 C7.16631579,0 0.00842105263,7.15789474 0,15.9915789 L0,28.3705263 C0.00842105263,30.3747368 1.63368421,32 3.63789474,32 L16.0084211,32 C24.8421053,32 32,24.8336842 32,16 C32,7.16631579 24.8336842,0 16,0 Z M4.34526316,28.4968421 C2.72842105,27.1157895 1.70947368,25.0694737 1.70947368,22.7873684 C1.70947368,19.4610526 3.88210526,16.6315789 6.88,15.6463158 C6.68631579,16.0757895 6.58526316,16.5473684 6.58526316,17.0357895 C6.58526316,17.8778947 6.88842105,18.6526316 7.40210526,19.2505263 C6.12210526,19.9157895 5.24631579,21.2463158 5.24631579,22.7873684 C5.24631579,23.7557895 5.59157895,24.64 6.17263158,25.3305263 C5.06947368,25.8778947 4.34526316,26.9894737 4.34526316,28.3368421 C4.33684211,28.3873684 4.33684211,28.4463158 4.34526316,28.4968421 Z M22.0294737,7.43578947 L21.6926316,7.43578947 C21.5915789,7.42736842 21.4989474,7.41052632 21.3894737,7.40210526 C21.2126316,7.38526316 21.0021053,7.36842105 20.6905263,7.36842105 C18.5010526,7.36842105 16.7326316,9.13684211 16.7242105,11.3263158 L16.7242105,14.7368421 C16.7242105,14.9894737 16.8926316,15.2084211 17.1284211,15.2757895 C17.1536842,15.2842105 17.1705263,15.2842105 17.1957895,15.2926316 L17.2126316,15.2926316 C17.2378947,15.2926316 17.2631579,15.3010526 17.2884211,15.3010526 L19.8905263,15.3010526 C20.8589474,15.3010526 21.6421053,16.0757895 21.6421053,17.0442105 C21.6421053,18.0210526 20.8505263,18.7957895 19.8736842,18.7957895 L16.7326316,18.7957895 L16.7326316,22.7789474 C16.7326316,26.9221053 13.3726316,30.2905263 9.22105263,30.2905263 C8.58947368,30.2905263 8.14315789,30.2231579 7.56210526,30.0631579 C6.71157895,29.8442105 6.02105263,29.1452632 6.02105263,28.3368421 C6.02105263,27.36 6.72842105,26.6442105 7.79789474,26.6442105 L8.23578947,26.6442105 C8.32842105,26.6526316 8.42947368,26.6694737 8.53052632,26.6778947 C8.70736842,26.6947368 8.91789474,26.7115789 9.22947368,26.7115789 C11.4189474,26.7115789 13.1873684,24.9431579 13.1957895,22.7536842 L13.1957895,19.3094737 C13.1957895,19.0568421 13.0273684,18.8378947 12.7915789,18.7705263 C12.7663158,18.7621053 12.7494737,18.7621053 12.7242105,18.7536842 L12.7073684,18.7536842 C12.6821053,18.7536842 12.6568421,18.7452632 12.6315789,18.7452632 L10.0294737,18.7452632 C9.06105263,18.7452632 8.27789474,17.9705263 8.27789474,17.0021053 C8.27789474,16.0252632 9.06947368,15.2505263 10.0463158,15.2505263 L13.1873684,15.2505263 L13.1873684,11.2673684 C13.1873684,7.12421053 16.5473684,3.75578947 20.6989474,3.75578947 C21.3305263,3.75578947 21.7768421,3.82315789 22.3578947,3.98315789 C23.2084211,4.20210526 23.8989474,4.90105263 23.8989474,5.70947368 C23.8989474,6.68631579 23.1915789,7.40210526 22.1221053,7.40210526 C22.0884211,7.43578947 22.0631579,7.43578947 22.0294737,7.43578947 Z M23.04,18.4421053 C23.2336842,18.0126316 23.3347368,17.5410526 23.3347368,17.0526316 C23.3347368,16.2105263 23.0315789,15.4357895 22.5178947,14.8378947 C23.7978947,14.1726316 24.6736842,12.8421053 24.6736842,11.3010526 C24.6736842,10.3326316 24.3284211,9.44842105 23.7473684,8.75789474 C24.8505263,8.21052632 25.5747368,7.09894737 25.5747368,5.75157895 C25.5747368,5.69263158 25.5747368,5.64210526 25.5663158,5.59157895 C27.1831579,6.97263158 28.2021053,9.01894737 28.2021053,11.3010526 C28.2189474,14.6189474 26.0463158,17.4484211 23.04,18.4421053 Z" id="Shape"></path>
                </g>
            </g>
        </g>
    </g>
</svg>