<?xml version="1.0" encoding="UTF-8"?>
<svg width="19px" height="20px" viewBox="0 0 19 20" version="1.1" xmlns="http://www.w3.org/2000/svg" xmlns:xlink="http://www.w3.org/1999/xlink">
    <g id="Symbols" stroke="none" stroke-width="1" fill="none" fill-rule="evenodd">
        <g id="文件">
            <g id="Group-2" transform="translate(2.000000, 0.000000)">
                <g id="Group">
                    <g id="29png" transform="translate(11.000000, 0.000000)"></g>
                    <path d="M15,4.06285748 L15,18.4486071 C15,19.3058324 14.3955138,20 13.6491571,20 L1.35096435,20 C0.604486207,20 0,19.3058324 0,18.4486071 L0,1.55139292 C0,0.694167558 0.604486207,0 1.35096435,0 L10.960857,0 L10.960857,3.33420346 C10.960857,4.01944246 11.3952656,4.06285748 11.9919768,4.06285748 L15,4.06285748 Z M2,8 L13,8 L13,7 L2,7 L2,8 Z M2,11 L13,11 L13,10 L2,10 L2,11 Z M2,14 L13,14 L13,13 L2,13 L2,14 Z M2,17 L13,17 L13,16 L2,16 L2,17 Z M2,5 L9,5 L9,4 L2,4 L2,5 Z" id="Combined-Shape" fill="#FEC161"></path>
                </g>
                <path d="M11.25,0 L11.25,3.0329255 C11.25,3.4284612 11.57356,3.75 11.9756488,3.75 L15,3.75 L11.25,0 Z" id="Fill-2" fill="#FEC161"></path>
            </g>
        </g>
    </g>
</svg>