<?xml version="1.0" encoding="UTF-8"?>
<svg width="20px" height="20px" viewBox="0 0 20 20" version="1.1" xmlns="http://www.w3.org/2000/svg" xmlns:xlink="http://www.w3.org/1999/xlink">
    <g id="Symbols" stroke="none" stroke-width="1" fill="none" fill-rule="evenodd">
        <g id="fils" fill="#FEC161" fill-rule="nonzero">
            <g id="文件夹" transform="translate(4.000000, 4.000000)">
                <path d="M12.4695341,11.1359207 C12.4695341,11.6131385 12.077727,12 11.5944086,12 L0.655340502,12 L2.18781362,4.871346 C2.18728049,4.64236035 2.27903406,4.42257302 2.44283332,4.2604695 C2.60663258,4.09836598 2.82901835,4.00726612 3.0609319,4.00726672 L13.1268817,4.00726672 C13.6086022,4.00726672 14,4.39372419 14,4.871346 L12.4695341,11.1359207 M2.4055914,3.35920727 L12.2507527,3.35920727 L12.2507527,2.51098266 C12.2507527,2.03376485 11.8589457,1.64690339 11.3756272,1.64690339 L6.12587814,1.64690339 L6.12587814,0.864079273 C6.12587814,0.38744839 5.73448029,0 5.25075269,0 L0.875125448,0 C0.391807009,2.20027684e-16 0,0.386861468 0,0.864079273 L0,11.1359207 L1.53046595,4.22427746 C1.53046595,3.74665566 1.9218638,3.35920727 2.4055914,3.35920727" id="Shape"></path>
            </g>
        </g>
    </g>
</svg>