<?xml version="1.0" encoding="UTF-8"?>
<svg width="30px" height="29px" viewBox="0 0 30 29" version="1.1" xmlns="http://www.w3.org/2000/svg" xmlns:xlink="http://www.w3.org/1999/xlink">
    <g id="1，云主机-创建云主机" stroke="none" stroke-width="1" fill="none" fill-rule="evenodd" transform="translate(-222.000000, -669.000000)">
        <g id="Group-33" transform="translate(199.000000, 379.000000)" fill="#1CAFC6" fill-rule="nonzero">
            <g id="Group-17" transform="translate(0.000000, 266.000000)">
                <g id="freebsd" transform="translate(23.000000, 24.000000)">
                    <path d="M2.85168238,18.803242 C0.806425292,11.8555388 4.80039478,4.56051236 11.7664564,2.52064395 C14.8584707,1.61487034 18.0201667,1.89685561 20.757733,3.09767607 C20.6150043,3.29987411 20.4825822,3.50484735 20.3598355,3.70909663 C19.022062,3.3968254 17.9966991,3.81844586 17.7408692,4.97042869 C17.3381639,6.78061846 18.9848323,9.71455634 21.414886,11.5178684 C23.8449096,13.3218441 26.1432622,13.3163239 26.5452764,11.5061643 C26.648011,11.0426442 26.6170013,10.5041332 26.4721692,9.93047959 C26.7528189,9.76058859 27.0293219,9.57283974 27.3010173,9.36859046 C27.6161923,10.0164205 27.8816376,10.6987296 28.0919446,11.4119279 C30.1372017,18.3596009 26.1432322,25.6546575 19.1771705,27.6945259 C12.2111389,29.7344547 4.89690943,25.7509754 2.85162229,18.803242 L2.85168238,18.803242 Z M19.8495579,5.89409032 C19.8599245,5.88374362 19.8695699,5.87415105 19.8798765,5.86311055 C23.0360135,2.61967665 26.9672725,0.698780202 28.6546261,1.57565545 C30.3412887,2.4532245 27.9147206,6.72348538 25.9935924,9.04262417 C25.4088555,9.6430344 24.7978865,10.1980458 24.1793154,10.6987296 C22.0306326,9.93186719 20.4004606,8.17054521 19.8495278,5.89406015 L19.8495579,5.89409032 Z M0.807837555,3.09354342 C0.507866915,0.769608338 2.48695799,0.0729406236 5.22521547,1.53924593 C5.87548739,1.88726305 6.50986385,2.32601741 7.10427627,2.82395609 C5.47206099,3.94842816 4.07154696,5.45940828 3.05513838,7.31155799 C1.83530385,5.95327465 0.977459338,4.40374327 0.807867603,3.09357359 L0.807837555,3.09354342 Z" id="Shape"></path>
                </g>
            </g>
        </g>
    </g>
</svg>