<?xml version="1.0" encoding="UTF-8"?>
<svg width="29px" height="31px" viewBox="0 0 29 31" version="1.1" xmlns="http://www.w3.org/2000/svg" xmlns:xlink="http://www.w3.org/1999/xlink">
    <g id="1，云主机-创建云主机" stroke="none" stroke-width="1" fill="none" fill-rule="evenodd" transform="translate(-448.000000, -666.000000)">
        <g id="Group-33" transform="translate(199.000000, 379.000000)" fill="#1CAFC6" fill-rule="nonzero">
            <g id="Group-28" transform="translate(226.000000, 266.000000)">
                <g id="gentoo-os" transform="translate(22.000000, 21.000000)">
                    <path d="M12.2022456,0.967401299 C8.89834352,1.28963837 8.2788619,1.71928781 5.38794763,4.08235967 C4.35547824,4.83424618 2.60028031,6.7676686 2.0840456,9.02332809 C1.87755174,9.88262693 2.0840456,10.6345134 2.70352723,11.1715752 C4.56197211,12.7827606 7.76262719,14.1791213 10.4470476,15.4680695 C11.1697762,15.897719 10.7567884,16.5421931 9.51782515,17.6163167 C6.42041702,20.409038 2.18729255,23.8462334 1.87755174,26.42413 C1.77430479,27.6056659 2.18729255,29.3242636 3.52950275,30.1835625 C5.18145377,31.1502737 8.69184966,30.5057995 10.9632823,29.6465007 C14.3704312,28.3575524 18.8100496,25.4574188 22.3204455,22.5572851 C26.0373352,19.5497391 29.4444842,15.897719 29.5477311,15.2532448 C29.754225,14.5013583 29.754225,13.8568842 29.3412373,12.9975853 C28.7217556,11.7086371 27.8957801,10.8493382 26.9665577,9.77521463 C24.5918781,7.0899057 22.0107047,4.83424621 18.9132965,3.00823612 C16.7451108,1.71928781 14.783419,0.645164229 12.2022456,0.967401299 Z M17.0548516,6.87508093 C19.4295312,8.05661685 21.8042108,11.1715752 17.0548516,12.9975853 C15.7126414,13.5346471 11.5827639,11.8160494 11.6860109,9.45297753 C11.8925047,6.12319442 14.1639374,5.47872028 17.0548516,6.87508093 Z" id="Shape"></path>
                </g>
            </g>
        </g>
    </g>
</svg>