<?xml version="1.0" encoding="UTF-8"?>
<svg width="8px" height="12px" viewBox="0 0 8 12" version="1.1" xmlns="http://www.w3.org/2000/svg" xmlns:xlink="http://www.w3.org/1999/xlink">
    <g id="Page-1" stroke="none" stroke-width="1" fill="none" fill-rule="evenodd">
        <g id="22-控制台-云主机-创建云主机" transform="translate(-410.000000, -425.000000)" fill="#01AFC9">
            <g id="分组-2-copy-3" transform="translate(390.000000, 331.000000)">
                <g id="Group-8-Copy-2" transform="translate(0.000000, 90.000000)">
                    <g id="Group-3" transform="translate(20.000000, 0.000000)">
                        <g id="分组-6">
                            <path d="M0.128198739,11.365625 L3.69162579,15.8390625 C3.77377255,15.940625 3.88579087,16 4.00029847,16 C4.11605073,16 4.22931371,15.9421875 4.30897116,15.8390625 L7.87239821,11.365625 C7.99686301,11.209375 8.03420245,10.971875 7.96699145,10.7671875 C7.89978045,10.5625 7.73922087,10.428125 7.56248087,10.428125 L5.66065883,10.428125 L5.66065883,4.55625001 C5.66065883,4.2484375 5.46275981,4 5.21756415,4 L2.7830328,4 C2.53783714,4 2.33993812,4.2484375 2.33993812,4.55625001 L2.33993812,10.428125 L0.436871453,10.428125 C0.260131452,10.428125 0.100816496,10.5625 0.0323608737,10.7671875 C0.00995719701,10.834375 3.25407816e-08,10.90625 0,10.9765625 C0,11.1203125 0.0435626629,11.2609375 0.128198739,11.365625 Z" id="路径"></path>
                        </g>
                    </g>
                </g>
            </g>
        </g>
    </g>
</svg>