<svg id="图层_1" data-name="图层 1" xmlns="http://www.w3.org/2000/svg" viewBox="0 0 19.74 20"><defs><style>.cls-1,.cls-2{fill:#e8ad69;}.cls-1{fill-rule:evenodd;}.cls-3{fill:#fff;}</style></defs><title>txt</title><path class="cls-1" d="M15.78,0v3a.73.73,0,0,0,.73.72h3Z"/><path class="cls-1" d="M19.39,4.52H16.21a1.33,1.33,0,0,1-1.27-1.38V0H7.3a2,2,0,0,0-2,2V8h1V2a1,1,0,0,1,1-1h6.64V3.14a2.33,2.33,0,0,0,2.27,2.38h2.53V18a1,1,0,0,1-1,1H7.3a1,1,0,0,1-1-1V17h-1v1a2,2,0,0,0,2,2H17.74a2,2,0,0,0,2-2V4.52Z"/><path class="cls-2" d="M15,8H2a2,2,0,0,0-2,2v5a2,2,0,0,0,2,2H15a2,2,0,0,0,2-2V10A2,2,0,0,0,15,8Z"/><path class="cls-3" d="M5.29,13a2.08,2.08,0,0,1-.41,1.38,1.5,1.5,0,0,1-1.19.48,1.69,1.69,0,0,1-.64-.12v-.91a.92.92,0,0,0,.58.19c.46,0,.69-.35.69-1.06V10.26h1Z"/><path class="cls-3" d="M7.26,13.22V14.8h-1V10.26H7.86c1.13,0,1.69.48,1.69,1.44A1.37,1.37,0,0,1,9,12.81a1.89,1.89,0,0,1-1.28.41Zm0-2.21v1.46h.42c.57,0,.85-.24.85-.74S8.25,11,7.69,11Z"/><path class="cls-3" d="M14,14.49a3.17,3.17,0,0,1-1.63.39,2.35,2.35,0,0,1-1.71-.61A2.22,2.22,0,0,1,10,12.6a2.31,2.31,0,0,1,.69-1.74,2.48,2.48,0,0,1,1.82-.68,3.47,3.47,0,0,1,1.26.21v.92A2.45,2.45,0,0,0,12.47,11a1.39,1.39,0,0,0-1.07.43,1.55,1.55,0,0,0-.4,1.12,1.58,1.58,0,0,0,.36,1.11,1.3,1.3,0,0,0,1,.4A1.51,1.51,0,0,0,13,14V13h-.91v-.77H14Z"/></svg>