<?xml version="1.0" encoding="UTF-8"?>
<svg width="20px" height="18px" viewBox="0 0 20 18" version="1.1" xmlns="http://www.w3.org/2000/svg" xmlns:xlink="http://www.w3.org/1999/xlink">
    <g id="Page-1" stroke="none" stroke-width="1" fill="none" fill-rule="evenodd">
        <g id="控制台" transform="translate(-188.000000, -1438.000000)" fill="#FFFFFF" fill-rule="nonzero">
            <g id="分组-4-copy-21">
                <g id="密钥对icon">
                    <path d="M206.571429,1449.25 L204.005059,1449.25 L201.031775,1451.66516 L194.858775,1451.66516 L192.139571,1449.25 L189.428571,1449.25 L189.428571,1453 C189.428571,1453.82843 190.068165,1454.5 190.857143,1454.5 L205.142857,1454.5 C205.931835,1454.5 206.571429,1453.82843 206.571429,1453 L206.571429,1449.25 Z M206.322686,1447.75 L204.363716,1440.58604 C204.187884,1439.94303 203.627763,1439.5 202.990622,1439.5 L192.997262,1439.5 C192.362991,1439.5 191.804668,1439.93912 191.626325,1440.57823 L189.625069,1447.75 L192.662745,1447.75 L195.381948,1450.16516 L200.543699,1450.16516 L203.516983,1447.75 L206.322686,1447.75 Z M192.997262,1438 L202.990622,1438 C204.264904,1438 205.385146,1438.88605 205.736811,1440.17209 L208,1448.44857 L208,1453 C208,1454.65685 206.720814,1456 205.142857,1456 L190.857143,1456 C189.279186,1456 188,1454.65685 188,1453 L188,1448.23895 L190.255389,1440.15647 C190.612075,1438.87823 191.728719,1438 192.997262,1438 Z M198.757928,1445.44352 C199.867405,1445.44305 200.816641,1445.44374 200.871332,1445.44737 C200.997331,1445.44233 201.034913,1445.57297 200.964241,1445.6204 C200.964241,1445.6204 200.951807,1445.62293 198.182474,1447.56559 C198.048537,1447.64853 197.966628,1447.64854 197.832696,1447.56559 C197.832696,1447.56559 195.051619,1445.6204 195.051624,1445.6204 C194.996141,1445.58454 194.994195,1445.44946 195.158853,1445.44737 C195.158853,1445.44737 196.122241,1445.44582 197.257928,1445.44465 L197.257928,1441.36165 C197.257928,1441.2512 197.347471,1441.16165 197.457928,1441.16165 L198.557928,1441.16165 C198.668385,1441.16165 198.757928,1441.2512 198.757928,1441.36165 L198.757928,1445.44352 Z" id="归档icon"></path>
                </g>
            </g>
        </g>
    </g>
</svg>