<?xml version="1.0" encoding="UTF-8"?>
<svg width="18px" height="16px" viewBox="0 0 18 16" version="1.1" xmlns="http://www.w3.org/2000/svg" xmlns:xlink="http://www.w3.org/1999/xlink">
    <g id="Page-1" stroke="none" stroke-width="1" fill="none" fill-rule="evenodd">
        <g id="4" transform="translate(-638.000000, -226.000000)">
            <g id="分组-copy" transform="translate(250.000000, 178.000000)">
                <g id="分组-3" transform="translate(388.000000, 40.000000)">
                    <g id="Group-43" transform="translate(0.000000, 8.000000)">
                        <path d="M14.9999894,13.3449574 C15.0006389,13.4419221 14.9715363,13.5352282 14.9191179,13.60424 C14.8666995,13.6732518 14.7952846,13.7122827 14.7206673,13.7127006 L13.796099,13.7127006 L13.796099,12.8060234 C13.796099,12.5413117 13.6338727,12.3273232 13.4338342,12.3273232 C13.2337957,12.3273232 13.0703496,12.5413117 13.0703496,12.8060234 L13.0703496,13.7142857 L11.9030517,13.7142857 L11.9030517,12.8060234 C11.9030517,12.5413117 11.7408253,12.3273232 11.5407868,12.3273232 C11.3407483,12.3273232 11.178522,12.5413117 11.178522,12.8060234 L11.178522,13.7142857 L10.0087846,13.7142857 L10.0087846,12.8060234 C10.0087846,12.5413117 9.84655821,12.3273232 9.64651969,12.3273232 C9.44648117,12.3273232 9.28547457,12.5413117 9.28547458,12.8060234 L9.28547458,13.7142857 L8.11695693,13.7142857 L8.11695693,12.8060234 C8.11695693,12.5413117 7.95473058,12.3273232 7.75469206,12.3273232 C7.55465355,12.3273232 7.39364694,12.5413117 7.39364696,12.8060234 L7.39364696,13.7142857 L6.22390956,13.7142857 L6.22390956,12.8060234 C6.22390956,12.5413117 6.06168321,12.3273232 5.8616447,12.3273232 C5.66160618,12.3273232 5.49694033,12.5413117 5.49694033,12.8060234 L5.49694033,13.7142857 L4.32964243,13.7142857 L4.32964243,12.8060234 C4.32964243,12.5413117 4.16741609,12.3273232 3.96737757,12.3273232 C3.76733905,12.3273232 3.60511271,12.5413117 3.60511271,12.8060234 L3.60511271,13.7142857 L2.68054447,13.7142857 C2.60581644,13.7138662 2.53427738,13.6748861 2.48166544,13.6059206 C2.42905349,13.5369552 2.39967845,13.4436539 2.40000266,13.3465425 L2.40000266,7.22330097 C2.39967824,7.12633585 2.42909196,7.03319754 2.48173896,6.96448363 C2.53438596,6.89576971 2.60592834,6.85714194 2.68054447,6.85714286 L14.7206673,6.85714286 C14.7950718,6.85756234 14.8663006,6.89637549 14.9186838,6.96504365 C14.971067,7.03371182 15.0003136,7.12660992 14.9999894,7.22330097 L14.9999894,13.3449574 Z" id="Shape" fill="#1CAFC6" fill-rule="nonzero"></path>
                        <rect id="Rectangle" fill="#1CAFC6" x="3.45" y="0" width="1.05" height="9.14285714" rx="0.525"></rect>
                        <rect id="Rectangle" fill="#1CAFC6" x="5.8125" y="0" width="1.05" height="9.14285714" rx="0.525"></rect>
                        <rect id="Rectangle-Copy" fill="#1CAFC6" x="8.175" y="0" width="1.05" height="9.14285714" rx="0.525"></rect>
                        <rect id="Rectangle-Copy-2" fill="#1CAFC6" x="10.5375" y="0" width="1.05" height="9.14285714" rx="0.525"></rect>
                        <rect id="Rectangle-Copy-3" fill="#1CAFC6" x="12.9" y="0" width="1.05" height="9.14285714" rx="0.525"></rect>
                        <rect id="Rectangle-3" stroke="#1CAFC6" stroke-width="1.05" x="0.825" y="2.81071429" width="15.75" height="12.6642857" rx="2.1"></rect>
                    </g>
                </g>
            </g>
        </g>
    </g>
</svg>