<svg id="图层_1" data-name="图层 1" xmlns="http://www.w3.org/2000/svg" viewBox="0 0 32 32"><defs><style>.cls-1{fill-rule:evenodd;}</style></defs><title>元数据定义</title><path class="cls-1" d="M16.09,7a2.33,2.33,0,1,0-2.37-2.33A2.34,2.34,0,0,0,16.09,7Zm-4.91,9.85a2.37,2.37,0,1,0-2.37,2.32,2.35,2.35,0,0,0,2.37-2.32Z"/><path class="cls-1" d="M25.81,10.75a3.58,3.58,0,1,1,3.64-3.58,3.61,3.61,0,0,1-3.64,3.58ZM19.54,24.54A3.64,3.64,0,1,1,15.91,21a3.61,3.61,0,0,1,3.63,3.58ZM6.17,10.93A3.58,3.58,0,1,1,9.81,7.35a3.61,3.61,0,0,1-3.64,3.58ZM25.81,1.08a6.13,6.13,0,0,0-6.18,6.08,6,6,0,0,0,.63,2.62L16,12.52,11.81,9.83a6,6,0,0,0,.55-2.49A6.13,6.13,0,0,0,6.18,1.26,6.13,6.13,0,0,0,0,7.34a6.14,6.14,0,0,0,6.18,6.09,6.23,6.23,0,0,0,4.53-2l4.2,2.7v4.37a6.18,6.18,0,1,0,2,0V14.28l4.48-2.88a6.22,6.22,0,0,0,4.43,1.86A6.14,6.14,0,0,0,32,7.17a6.14,6.14,0,0,0-6.19-6.09Z"/><path class="cls-1" d="M22.81,14.87a2.33,2.33,0,1,0,2.37,2.32,2.34,2.34,0,0,0-2.37-2.32Z"/></svg>