<svg id="图层_1" data-name="图层 1" xmlns="http://www.w3.org/2000/svg" viewBox="0 0 19.74 20"><defs><style>.cls-1{fill:#8fbf76;}.cls-1,.cls-2{fill-rule:evenodd;}.cls-2,.cls-3{fill:#6289c6;}.cls-4{fill:#fff;}</style></defs><title>txt</title><path class="cls-1" d="M15.78,0v3a.73.73,0,0,0,.73.72h3Z"/><path class="cls-1" d="M19.39,4.52H16.21a1.33,1.33,0,0,1-1.27-1.38V0H7.3a2,2,0,0,0-2,2V8h1V2a1,1,0,0,1,1-1h6.64V3.14a2.33,2.33,0,0,0,2.27,2.38h2.53V18a1,1,0,0,1-1,1H7.3a1,1,0,0,1-1-1V17h-1v1a2,2,0,0,0,2,2H17.74a2,2,0,0,0,2-2V4.52Z"/><path class="cls-2" d="M15.78,0v3a.73.73,0,0,0,.73.72h3Z"/><path class="cls-2" d="M19.39,4.52H16.21a1.33,1.33,0,0,1-1.27-1.38V0H7.3a2,2,0,0,0-2,2V8h1V2a1,1,0,0,1,1-1h6.64V3.14a2.33,2.33,0,0,0,2.27,2.38h2.53V18a1,1,0,0,1-1,1H7.3a1,1,0,0,1-1-1V17h-1v1a2,2,0,0,0,2,2H17.74a2,2,0,0,0,2-2V4.52Z"/><path class="cls-3" d="M15,8H2a2,2,0,0,0-2,2v5a2,2,0,0,0,2,2H15a2,2,0,0,0,2-2V10A2,2,0,0,0,15,8Z"/><path class="cls-4" d="M6.2,14.8V12c0-.25,0-.57,0-.95h0a3.22,3.22,0,0,1-.14.58L5,14.8H4.18L3.05,11.7a4.46,4.46,0,0,1-.14-.61h0c0,.38,0,.76,0,1.14V14.8H2V10.26H3.45l1,2.74a3.6,3.6,0,0,1,.17.64h0c.06-.25.12-.46.18-.64l1-2.74H7.15V14.8Z"/><path class="cls-4" d="M9.18,13.22V14.8h-1V10.26H9.78c1.13,0,1.69.48,1.69,1.44A1.37,1.37,0,0,1,11,12.81a1.89,1.89,0,0,1-1.28.41Zm0-2.21v1.46H9.6c.57,0,.85-.24.85-.74S10.17,11,9.61,11Z"/><path class="cls-4" d="M12.1,13.81a1.68,1.68,0,0,0,1.06.34,1,1,0,0,0,.61-.17A.55.55,0,0,0,14,13.5a.56.56,0,0,0-.27-.5,1.41,1.41,0,0,0-.75-.17h-.4v-.72h.37c.61,0,.91-.21.91-.62s-.23-.58-.7-.58a1.51,1.51,0,0,0-.88.3v-.78a2.26,2.26,0,0,1,1.1-.25,1.72,1.72,0,0,1,1.05.3,1,1,0,0,1,.4.83,1.06,1.06,0,0,1-.9,1.11v0a1.13,1.13,0,0,1,.75.35,1,1,0,0,1,.29.71,1.21,1.21,0,0,1-.47,1,2,2,0,0,1-1.27.37,2.39,2.39,0,0,1-1.12-.23Z"/></svg>