<svg id="图层_1" data-name="图层 1" xmlns="http://www.w3.org/2000/svg" viewBox="0 0 19.74 20"><defs><style>.cls-1,.cls-2{fill:#1f90d0;}.cls-1{fill-rule:evenodd;}.cls-3{fill:#fff;}</style></defs><title>txt</title><path class="cls-1" d="M15.78,0v3a.73.73,0,0,0,.73.72h3Z"/><path class="cls-1" d="M19.39,4.52H16.21a1.33,1.33,0,0,1-1.27-1.38V0H7.3a2,2,0,0,0-2,2V8h1V2a1,1,0,0,1,1-1h6.64V3.14a2.33,2.33,0,0,0,2.27,2.38h2.53V18a1,1,0,0,1-1,1H7.3a1,1,0,0,1-1-1V17h-1v1a2,2,0,0,0,2,2H17.74a2,2,0,0,0,2-2V4.52Z"/><path class="cls-2" d="M15,8H2a2,2,0,0,0-2,2v5a2,2,0,0,0,2,2H15a2,2,0,0,0,2-2V10A2,2,0,0,0,15,8Z"/><path class="cls-3" d="M6.1,14.8V12.05c0-.26,0-.58,0-1h0a4.46,4.46,0,0,1-.14.58L4.85,14.8H4.08L3,11.7a4.08,4.08,0,0,1-.14-.61h0c0,.38,0,.76,0,1.14V14.8H1.94V10.26H3.35l1,2.74a3.6,3.6,0,0,1,.17.64h0c.06-.25.12-.46.18-.64l1-2.74H7.05V14.8Z"/><path class="cls-3" d="M9.08,13.22V14.8h-1V10.26H9.68c1.12,0,1.69.48,1.69,1.44a1.37,1.37,0,0,1-.51,1.11,1.89,1.89,0,0,1-1.28.41Zm0-2.21v1.47H9.5c.57,0,.85-.25.85-.75S10.07,11,9.51,11Z"/><path class="cls-3" d="M15.06,13.81h-.55v1h-.86v-1h-2v-.6l1.92-3h.94v2.87h.55Zm-1.41-.68V11.64c0-.13,0-.27,0-.44h0a1.16,1.16,0,0,0-.06.15,1.08,1.08,0,0,1-.11.21l-1,1.57Z"/></svg>