<svg id="图层_1" data-name="图层 1" xmlns="http://www.w3.org/2000/svg" viewBox="0 0 19.74 20"><defs><style>.cls-1,.cls-2{fill:#1f90d0;}.cls-1{fill-rule:evenodd;}.cls-3{fill:#fff;}</style></defs><title>txt</title><path class="cls-1" d="M15.78,0v3a.73.73,0,0,0,.73.72h3Z"/><path class="cls-1" d="M19.39,4.52H16.21a1.33,1.33,0,0,1-1.27-1.38V0H7.3a2,2,0,0,0-2,2V8h1V2a1,1,0,0,1,1-1h6.64V3.14a2.33,2.33,0,0,0,2.27,2.38h2.53V18a1,1,0,0,1-1,1H7.3a1,1,0,0,1-1-1V17h-1v1a2,2,0,0,0,2,2H17.74a2,2,0,0,0,2-2V4.52Z"/><path class="cls-2" d="M15,8H2a2,2,0,0,0-2,2v5a2,2,0,0,0,2,2H15a2,2,0,0,0,2-2V10A2,2,0,0,0,15,8Z"/><path class="cls-3" d="M5.76,14.8V12.05c0-.26,0-.58,0-1h0a4.46,4.46,0,0,1-.14.58L4.51,14.8H3.74L2.61,11.7a4.08,4.08,0,0,1-.14-.61h0c0,.38,0,.76,0,1.14V14.8H1.6V10.26H3L4,13a3.6,3.6,0,0,1,.17.64h0c.06-.25.12-.46.18-.64l1-2.74H6.71V14.8Z"/><path class="cls-3" d="M11.51,10.26,9.93,14.8H8.84L7.28,10.26h1l1,3.21a2,2,0,0,1,.09.45h0a2.72,2.72,0,0,1,.1-.46l1-3.2Z"/><path class="cls-3" d="M12.06,14.8V10.26h1.61a2,2,0,0,1,1.15.28A1,1,0,0,1,15,12a1.36,1.36,0,0,1-.63.38h0a1.27,1.27,0,0,1,.77.36,1,1,0,0,1,.29.73,1.21,1.21,0,0,1-.44,1,1.78,1.78,0,0,1-1.2.37ZM13,11V12.1h.46A.82.82,0,0,0,14,12a.55.55,0,0,0,.19-.45c0-.34-.25-.52-.76-.52Zm0,1.85v1.25h.57a.91.91,0,0,0,.58-.17.59.59,0,0,0,.2-.47.56.56,0,0,0-.2-.45,1,1,0,0,0-.58-.16Z"/></svg>