<?xml version="1.0" encoding="UTF-8"?>
<svg width="12px" height="12px" viewBox="0 0 12 12" version="1.1" xmlns="http://www.w3.org/2000/svg" xmlns:xlink="http://www.w3.org/1999/xlink">
    <g id="Page-1" stroke="none" stroke-width="1" fill="none" fill-rule="evenodd">
        <g id="Qos限速" fill="#000000">
            <path d="M10.2810355,11.9956435 L10.1588977,12 C10.1996491,12 10.2403876,11.9985469 10.2810355,11.9956435 Z M10.2810355,11.9956435 C10.2403876,11.9985469 10.1996491,12 10.1588977,12 L10.2810355,11.9956435 Z M11.5713096,5.99833439 L10.716345,6.05940329 L10.4016174,1.65321681 C10.3695783,1.20466933 9.99634308,0.857142857 9.54665279,0.857142857 L2.45334721,0.857142857 C2.00365692,0.857142857 1.63042171,1.20466933 1.59838261,1.65321681 L0.986137708,10.2246454 C0.984685998,10.2449693 0.983959451,10.2653386 0.983959451,10.2857143 C0.983959451,10.7591012 1.36771538,11.1428571 1.84110231,11.1428571 L4.27566964,11.1428571 L4.27566964,12 L1.84110231,12 C0.894328451,12 0.126816594,11.2324881 0.126816594,10.2857143 C0.126816594,10.2449628 0.128269688,10.2042244 0.131173108,10.1635765 L0.743418006,1.59214791 C0.807496219,0.69505294 1.55396664,0 2.45334721,0 L9.54665279,0 C10.4460334,0 11.1925038,0.69505294 11.256582,1.59214791 L11.5713096,5.99833439 Z M10.716345,6.05940329 L10.4016174,1.65321681 C10.3695783,1.20466933 9.99634308,0.857142857 9.54665279,0.857142857 L2.45334721,0.857142857 C2.00365692,0.857142857 1.63042171,1.20466933 1.59838261,1.65321681 L0.986137708,10.2246454 C0.984685998,10.2449693 0.983959451,10.2653386 0.983959451,10.2857143 C0.983959451,10.7591012 1.36771538,11.1428571 1.84110231,11.1428571 L4.27566964,11.1428571 L4.27566964,12 L1.84110231,12 C0.894328451,12 0.126816594,11.2324881 0.126816594,10.2857143 C0.126816594,10.2449628 0.128269688,10.2042244 0.131173108,10.1635765 L0.743418006,1.59214791 C0.807496219,0.69505294 1.55396664,0 2.45334721,0 L9.54665279,0 C10.4460334,0 11.1925038,0.69505294 11.256582,1.59214791 L11.5713096,5.99833439 L10.716345,6.05940329 Z" id="Rectangle-74" fill-rule="nonzero"></path>
            <path d="M4.70516386,3.95472289 C4.71995683,3.94048931 4.73453767,3.92605714 4.748902,3.91143071 C4.98388732,3.67128168 5.10223758,3.35843448 5.10223758,2.97370593 C5.10223758,2.60449721 4.98903298,2.30226884 4.76262377,2.06783764 C4.53621456,1.83340645 4.23862366,1.7149656 3.86813587,1.7149656 C3.47878063,1.7149656 3.16489514,1.83667378 2.92733699,2.07927331 C2.68977884,2.32187284 2.57142857,2.63717055 2.57142857,3.0243496 C2.57142857,3.39029098 2.68806362,3.68925202 2.91961849,3.92204955 C3.15117337,4.15484708 3.45390992,4.27083743 3.82611294,4.27083743 C3.95990021,4.27083743 4.08511136,4.25613442 4.20174641,4.22591159 L4.54650589,4.5608133 L5.36552405,4.5608133 L4.70516386,3.95472289 Z M4.34153694,3.59531617 C4.22061384,3.74152936 4.05252215,3.81504437 3.83554666,3.81504437 C3.62371683,3.81504437 3.45648276,3.73907886 3.33470205,3.586331 C3.21292133,3.43358315 3.15288859,3.23672629 3.15288859,2.99576043 C3.15288859,2.75234406 3.21463656,2.55385354 3.33984771,2.40028885 C3.46505886,2.24672417 3.63486577,2.17075866 3.85184126,2.17075866 C4.06538631,2.17075866 4.23004756,2.2450905 4.34754022,2.39457102 C4.46503288,2.54405154 4.52249279,2.7482599 4.52249279,3.00556243 C4.52249279,3.25224613 4.46246004,3.44828615 4.34153694,3.59531617 Z M5.6511084,2.66902705 C5.46843733,2.83484424 5.37667299,3.06274077 5.37667299,3.35353347 C5.37667299,3.63615784 5.4658645,3.85997021 5.64253229,4.02415373 C5.81920008,4.18833725 6.05847345,4.27083743 6.3603524,4.27083743 C6.66737701,4.27083743 6.91093843,4.18506991 7.09103667,4.01435173 C7.2711349,3.84363354 7.36032641,3.61246967 7.36032641,3.32331064 C7.36032641,3.04803777 7.27199252,2.82830957 7.09703994,2.66494289 C6.92208737,2.5015762 6.68538683,2.41989285 6.38693833,2.41989285 C6.07905611,2.41989285 5.83377946,2.50320987 5.6511084,2.66902705 Z M6.81059799,3.33229581 C6.81059799,3.69415302 6.66566179,3.87467321 6.376647,3.87467321 C6.07476806,3.87467321 5.92468619,3.69905402 5.92468619,3.34699881 C5.92468619,3.17791429 5.96413628,3.04722094 6.04303646,2.95491876 C6.12193664,2.86261658 6.23256841,2.81605707 6.37407417,2.81605707 C6.66480418,2.81524024 6.81059799,2.98759209 6.81059799,3.33229581 Z M8.38860157,3.85261871 C8.12274228,3.85261871 7.88518413,3.77011853 7.67678474,3.60511817 L7.67678474,4.13279257 C7.8671743,4.22427792 8.10987812,4.27002059 8.40746901,4.27002059 C8.73250344,4.27002059 8.98292575,4.20794125 9.15959354,4.08296574 C9.33626134,3.95799022 9.42459523,3.77747003 9.42459523,3.54058833 C9.42459523,3.37885531 9.37571143,3.23917679 9.27965903,3.12236961 C9.18360664,3.00556243 9.00608124,2.89447308 8.74794044,2.78910157 C8.5275345,2.69761622 8.3903168,2.62491805 8.3345721,2.57100704 C8.27882741,2.51709603 8.25052626,2.45828403 8.25052626,2.39457102 C8.25052626,2.31452134 8.29169157,2.25162517 8.37316458,2.20424883 C8.45463759,2.15687249 8.56355415,2.13318432 8.69991424,2.13318432 C8.93318433,2.13318432 9.13729567,2.18954583 9.31139063,2.30226884 L9.31139063,1.80890144 C9.10645401,1.74095615 8.89023937,1.70912493 8.67332831,1.7149656 C8.37059175,1.7149656 8.12703033,1.77867861 7.94350165,1.90528779 C7.75997297,2.03189697 7.66649341,2.21078349 7.66649341,2.44031369 C7.66649341,2.7531609 7.86888952,2.99085943 8.27453936,3.15504295 C8.53268016,3.25714713 8.69133813,3.33801364 8.75222849,3.39764248 C8.81311884,3.45727132 8.84227761,3.5201675 8.84227761,3.58714784 C8.84227761,3.66474701 8.80454274,3.72846002 8.72821539,3.77747003 C8.65188804,3.82648004 8.53954105,3.85261871 8.38860157,3.85261871 Z" id="Shape" fill-rule="nonzero"></path>
            <path d="M7.71428571,10.6602782 L7.71428571,11.1428571 L8.57142857,11.1428571 L8.57142857,10.6602782 C8.87783465,10.5814147 9.1510872,10.4199676 9.3660441,10.201079 L9.78434015,10.4425823 L10.2129116,9.70027483 L9.79500377,9.45899564 C9.83550141,9.31290855 9.85714286,9.15898159 9.85714286,9 C9.85714286,8.84101841 9.83550141,8.68709145 9.79500377,8.54100436 L10.2129116,8.29972517 L9.78434015,7.55741768 L9.3660441,7.79892102 C9.1510872,7.58003237 8.87783465,7.41858525 8.57142857,7.33972178 L8.57142857,6.85714286 L7.71428571,6.85714286 L7.71428571,7.33972178 C7.40787964,7.41858525 7.13462709,7.58003237 6.91967019,7.79892102 L6.50137413,7.55741768 L6.07280271,8.29972517 L6.49071052,8.54100436 C6.45021287,8.68709145 6.42857143,8.84101841 6.42857143,9 C6.42857143,9.15898159 6.45021287,9.31290855 6.49071052,9.45899564 L6.07280271,9.70027483 L6.50137413,10.4425823 L6.91967019,10.201079 C7.13462709,10.4199676 7.40787964,10.5814147 7.71428571,10.6602782 Z M7.36560466,6.0010594 C7.87503895,5.99964687 8.41938981,5.99964687 8.99865724,6.0010594 C9.26419504,6.04472569 9.39696395,6.19047764 9.39696395,6.43831526 C9.39696395,6.64930507 9.39696395,6.76126971 9.39696395,6.77420916 L9.64164517,6.63466971 C9.87416296,6.48856027 10.0721654,6.51595633 10.2356524,6.71685791 C10.3703395,6.95949009 10.6626368,7.4767674 11.1125442,8.26868984 C11.1929277,8.52199445 11.1446489,8.70400565 10.9677078,8.81472342 C10.8020237,8.91260638 10.6954869,8.97538321 10.6480975,9.00305394 L10.9677078,9.19821167 C11.1563066,9.36053903 11.1968994,9.54962594 11.0894863,9.76547241 C10.9929287,9.93619646 10.7083174,10.4430934 10.2356524,11.2861633 C10.0646057,11.4614737 9.90325929,11.5095084 9.75161308,11.4302673 C9.57100134,11.3289141 9.45278496,11.25977 9.39696395,11.222835 L9.39696395,11.6418326 C9.32230051,11.8757019 9.18194145,11.9896153 8.97588676,11.9835728 C8.81482371,11.9835728 8.26558567,11.9835728 7.32817267,11.9835728 C7.05448251,11.9526629 6.91179975,11.8387495 6.9001244,11.6418326 C6.9001244,11.4077366 6.9001244,11.2680708 6.9001244,11.222835 L6.58588926,11.4095503 C6.34812264,11.5070234 6.16857465,11.4528198 6.04724528,11.2469395 C5.91513053,11.0264893 5.6400102,10.5431649 5.2218843,9.79696655 C5.10964957,9.52066912 5.14116115,9.32108416 5.31641904,9.19821167 C5.50283805,9.08888899 5.61245729,9.02383641 5.64527676,9.00305394 L5.3494568,8.8318961 C5.12653897,8.6600647 5.0840148,8.44984218 5.2218843,8.20122855 C5.3597538,7.95261492 5.63487413,7.46558053 6.04724528,6.74012538 C6.20592817,6.53468105 6.38547616,6.48412214 6.58588926,6.58844866 C6.76942217,6.69509452 6.87416722,6.75701468 6.9001244,6.77420916 L6.9001244,6.35113089 C6.97201529,6.1177499 7.12717538,6.0010594 7.36560466,6.0010594 Z" id="Combined-Shape"></path>
            <circle id="Oval-31" cx="8.14285714" cy="9" r="1"></circle>
        </g>
    </g>
</svg>