<?xml version="1.0" encoding="UTF-8" standalone="no"?>
<svg width="32px" height="30px" viewBox="0 0 32 30" version="1.1" xmlns="http://www.w3.org/2000/svg" xmlns:xlink="http://www.w3.org/1999/xlink">
    <g id="运营平台-公告-点击公告名称弹出公告详情" stroke="none" stroke-width="1" fill="none" fill-rule="evenodd" transform="translate(-22.000000, -403.000000)">
        <g id="icon_公告" transform="translate(22.000000, 403.000000)" fill="#FFFFFF" fill-rule="nonzero">
            <path d="M17.080305,0.486092256 C16.9262993,0.257556345 16.7006631,0.10519907 16.4571192,0.0399030957 C16.4535377,0.0399030957 16.4463746,0.0362755415 16.4427931,0.0362755415 C16.4320485,0.0326479874 16.4213039,0.0326479874 16.4141409,0.0290204332 C16.4069778,0.0253928791 16.3962332,0.0253928791 16.3890702,0.0217653249 C16.3819071,0.0217653249 16.3747441,0.0181377708 16.367581,0.0181377708 C16.3568364,0.0145102166 16.3460918,0.0145102166 16.3353473,0.0108826625 C16.3281842,0.0108826625 16.3246027,0.0108826625 16.3174396,0.0072551083 C16.306695,0.0072551083 16.2923689,0.00362755415 16.2816243,0.00362755415 L16.2637167,0.00362755415 C16.2529721,0.00362755415 16.238646,0 16.2279014,0 L16.17776,0 L16.1741785,0 C15.9628684,0 15.7479767,0.0616684206 15.5617373,0.19226037 L7.43166971,5.80408664 L1.09594744,5.80408664 C0.888218838,5.80408664 0.694816349,5.86212751 0.530066081,5.96369902 C0.50141386,5.98183679 0.469180112,6.00360212 0.444109419,6.02536744 C0.419038726,6.04713277 0.390386505,6.06889809 0.361734285,6.09429097 C0.139679575,6.297434 0,6.59126589 0,6.91411821 L0,23.0857546 C0,23.4086069 0.139679575,23.7024388 0.361734285,23.9055818 C0.386804978,23.9309747 0.415457198,23.9527401 0.444109419,23.9745054 C0.47276164,23.9962707 0.50141386,24.0144085 0.530066081,24.0361738 C0.694816349,24.1377453 0.891800366,24.1957862 1.09594744,24.1957862 L7.42808819,24.1957862 L15.5581558,29.8076125 C16.0559881,30.1522301 16.7436414,30.0216381 17.080305,29.5137806 C17.2271476,29.2924998 17.2880336,29.038571 17.2665444,28.7918973 C17.270126,28.7592493 17.270126,28.7266013 17.270126,28.6939533 L17.270126,1.11365912 L17.270126,1.11003157 C17.270126,0.896005875 17.20924,0.678352626 17.080305,0.486092256 Z M8.38077452,22.171611 C8.17662745,22.0301364 7.94382816,21.9684679 7.71102886,21.9793506 L2.19189487,21.9793506 L2.19189487,8.02777733 L7.71461039,8.02777733 C7.94382816,8.03866 8.18020898,7.97699158 8.38435605,7.83551696 L15.0818126,3.21401298 L15.0818126,26.7967425 L8.38077452,22.171611 Z M23.3587228,9.0434925 C22.7677708,8.37239498 22.0944436,7.81375164 21.370975,7.36756248 L21.3530674,7.38570025 C20.9483548,7.11363369 20.4075441,7.1208888 20.0279022,7.46550644 C19.5766297,7.87542006 19.5372329,8.57553801 19.9419455,9.03260983 C19.9885054,9.08339559 20.0458098,9.11241603 20.0995327,9.15231912 C20.0959512,9.16320178 20.0959512,9.17045689 20.0923697,9.18133955 C20.6904848,9.52958475 21.2456216,9.97577391 21.7291278,10.5235346 C24.1717296,13.294986 23.9353488,17.5464794 21.1990617,20.0240989 C20.8623981,20.3288135 20.5006638,20.5754871 20.1246034,20.7931404 C20.1317665,20.8040231 20.1317665,20.8149057 20.1389295,20.8257884 C20.1031143,20.8511813 20.0601359,20.8620639 20.0279022,20.8910844 C19.5766297,21.300998 19.5372329,22.0011159 19.9419455,22.4581877 C20.2821906,22.8427085 20.8230013,22.911632 21.2563661,22.6867237 L21.2742738,22.7048614 C21.7613615,22.4146571 22.2269601,22.073667 22.6639065,21.6782636 C26.2848309,18.3916995 26.6035868,12.72546 23.3587228,9.0434925 Z" id="Shape"></path>
            <path d="M27.3046567,4.29292876 C26.1435405,3.00563867 24.8075125,1.97285579 23.3710033,1.16507204 L23.3598388,1.17613757 C22.9430278,0.917941851 22.3959634,0.936384403 22.0089247,1.27941586 C21.5400124,1.69621752 21.4990756,2.40810001 21.9196081,2.8728523 C22.0126462,2.97613059 22.124292,3.05358931 22.2433809,3.11260547 C22.2433809,3.123671 22.2471024,3.13104802 22.2471024,3.14211355 C23.4714846,3.82817647 24.6139932,4.69866489 25.6039192,5.79415245 C30.4753972,11.19782 30.0027633,19.4932797 24.5470057,24.3215396 C23.6501178,25.1182578 22.6676349,25.7563701 21.6404936,26.2653845 C21.6442151,26.269073 21.6404936,26.2764501 21.6442151,26.2801386 C21.5548985,26.3244007 21.4581388,26.3612858 21.3799867,26.435056 C20.9110744,26.8518577 20.8701376,27.5637402 21.2906701,28.0284925 C21.6516582,28.4305401 22.2322163,28.4932448 22.6862425,28.2424261 L22.7011286,28.2571801 C23.892017,27.6633299 25.0270826,26.9256279 26.0653884,26.0071888 C32.4478062,20.3600796 33.0023136,10.6187239 27.3046567,4.29292876 Z" id="Shape"></path>
        </g>
    </g>
</svg>