<?xml version="1.0" encoding="UTF-8"?>
<svg width="18px" height="20px" viewBox="0 0 18 20" version="1.1" xmlns="http://www.w3.org/2000/svg" xmlns:xlink="http://www.w3.org/1999/xlink">
    <g id="控制台-一级导航" stroke="none" stroke-width="1" fill="none" fill-rule="evenodd" transform="translate(-33.000000, -783.000000)">
        <g id="Group-9" fill="#FFFFFF">
            <g id="存储桶" transform="translate(33.000000, 783.000000)">
                <g id="Group">
                    <path d="M15.2999478,1.12494528 C13.7250168,0.374933281 11.4750131,0 9.00001492,0 C6.52498695,0 4.27498322,0.374933281 2.70005221,1.12494528 C0.899977626,1.99994473 0,2.99993165 0,4.25000982 L0,15.875094 C0,17.0000684 0.899977626,18.1250427 2.70005221,18.8750547 C4.27498322,19.6250667 6.52498695,20 9.00001492,20 C11.4750131,20 13.7250168,19.6250667 15.2999478,18.8750547 C16.9874655,18.1250427 18,17.0000684 18,15.875094 L18,4.25000982 C18,2.99993165 17.1000224,1.99994473 15.2999478,1.12494528 M14.1571361,6.34245167 C12.7306501,6.95203094 10.75555,7.19586846 9.00001492,7.19586846 C7.1346675,7.19586846 5.26934991,6.95203094 3.84286389,6.34245167 C2.19699192,5.85480571 1.42890242,5.12329313 1.42890242,4.39180964 C1.42890242,3.66029707 2.30674456,2.92881358 3.84286389,2.31923431 C5.26934991,1.70965504 7.1346675,1.46581752 9.00001492,1.46581752 C10.75555,1.46581752 12.7306501,1.83155926 14.1571361,2.31923431 C15.6932554,2.92881358 16.5710976,3.66029707 16.5710976,4.39180964 C16.5710976,5.12329313 15.8029186,5.85480571 14.1571361,6.34245167 M14.2667694,9.87813941 C12.8404326,10.3656981 10.8653325,10.7315562 9.00001492,10.7315562 C7.1346675,10.7315562 5.26934991,10.3658145 3.73323058,9.87813941 C2.19708142,9.26856014 1.31926911,8.53707665 1.31926911,7.80556408 L1.31926911,6.46438497 C2.41652704,6.95203094 3.1845867,7.56172655 4.39150777,7.80556408 C5.81796395,8.17130582 7.35423244,8.41514335 9.00001492,8.41514335 C10.6458869,8.41514335 12.182036,8.17130582 13.6084922,7.80556408 C14.8155326,7.56172655 15.5835923,6.95203094 16.6807309,6.46438497 L16.6807309,7.92738104 C16.6807309,8.53707665 15.8029186,9.26856014 14.2667694,9.87813941 M14.2667694,13.7794526 C12.8404326,14.2671276 10.8653325,14.6328693 9.00001492,14.6328693 C7.1346675,14.6328693 5.26934991,14.2671276 3.73323058,13.7794526 C2.19708142,13.2917775 1.31926911,12.560294 1.31926911,11.7068772 L1.31926911,9.87813941 C2.41652704,10.4877187 3.1845867,10.9753937 4.39150777,11.3411355 C5.81796395,11.7068772 7.35423244,11.9507147 9.00001492,11.9507147 C10.6458869,11.9507147 12.182036,11.7068772 13.6084922,11.3411355 C14.8155326,10.9753937 15.5835923,10.4877187 16.6807309,9.87813941 L16.6807309,11.7068772 C16.6807309,12.560294 15.8029186,13.2917775 14.2667694,13.7794526 M9.00001492,18.5341825 C7.1346675,18.5341825 5.26934991,18.1685571 3.73323058,17.6807657 C2.19708142,17.1930906 1.31926911,16.4616072 1.31926911,15.6081904 L1.31926911,13.7794526 C2.41652704,14.3890318 3.1845867,14.8767069 4.39150777,15.2424486 C5.70833064,15.6081904 7.35423244,15.8520279 8.89035177,15.8520279 C10.5361342,15.8520279 12.0723729,15.6081904 13.4987098,15.2424486 C14.8155326,14.8767069 15.5835923,14.3890318 16.6807309,13.7794526 L16.6807309,15.6081904 C16.6807309,16.3397029 15.8030081,17.0711864 14.2667694,17.680882 C12.8404326,18.290345 10.75555,18.5341825 9.00001492,18.5341825" id="Fill-1"></path>
                </g>
            </g>
        </g>
    </g>
</svg>