<?xml version="1.0" encoding="UTF-8"?>
<svg width="32px" height="32px" viewBox="0 0 32 32" version="1.1" xmlns="http://www.w3.org/2000/svg" xmlns:xlink="http://www.w3.org/1999/xlink">
    <title>Artboard</title>
    <desc>Created with Sketch.</desc>
    <defs></defs>
    <g id="Page-1" stroke="none" stroke-width="1" fill="none" fill-rule="evenodd">
        <g id="Artboard" fill="#1CAFC6" fill-rule="nonzero">
            <g id="suse" transform="translate(0.000000, 8.000000)">
                <path d="M31.6724522,6.99783002 L31.8116514,6.97036078 C33.0513775,7.99943341 27.7746751,9.45671549 27.5271432,9.48580888 C26.1772845,9.64525759 22.1677747,8.38732169 21.83691,10.5049954 C21.6133113,11.927323 22.4634396,13.2063022 23.0931693,14.3464522 L23.0442362,14.3593748 C22.2041078,13.9496665 21.1717139,13.62858 20.4401848,13.0304002 C18.7512614,11.3138198 17.4220025,9.1760208 14.7446183,9.86748304 C14.4293535,9.94685432 14.0278225,10.1912529 13.7671573,10.4660865 C12.9826286,11.2855032 13.1374944,12.8072567 13.2835602,13.8475572 L13.2361605,13.8532064 C12.5745643,13.4954001 11.9019016,13.156448 11.2343722,12.8105756 C10.7849082,10.4997699 9.19091754,8.32553355 6.89753101,7.90593913 C5.71653794,7.69063394 3.56328392,7.66613053 2.42322394,9.94558325 C1.94656007,10.8972618 1.97529324,12.1366259 2.4982235,13.1808808 C3.03075371,14.249639 3.98234812,14.9351696 5.10874151,15.0667254 C6.22566828,15.1956684 7.06553002,14.9222471 7.53659392,14.2757666 C8.01199113,13.6233545 8.10065728,12.7355119 7.76312592,12.0122729 C7.40139471,11.2358608 6.85506459,10.823116 6.09580238,10.7553256 C5.51860577,10.7004577 5.08994162,10.9550955 4.93540919,11.2153824 C4.84894303,11.3595077 4.80647662,11.5103414 4.80714328,11.6680247 C4.80714328,12.2510223 5.31094032,12.4100473 5.41340639,12.4173206 C5.61067189,12.4173206 5.82107066,12.3584277 6.01026955,12.2916965 C6.37613407,12.2209403 6.72826533,12.4493798 6.8307314,12.8270289 C6.91119759,13.1399241 6.79659827,13.4764752 6.53853311,13.6597212 L6.54659973,13.6566848 C6.19566846,13.8673294 5.79607081,13.9808077 5.39153985,13.9808077 C4.52061163,13.979466 3.30681875,13.1851177 3.29021885,11.6941522 C3.28175224,10.8522094 3.68068323,10.085754 4.38254577,9.5926494 C5.19047436,9.02723496 6.58773283,8.83480904 7.88345855,9.67639881 C9.47838252,10.7106969 9.89478008,12.7354413 9.47838252,14.1167416 C8.87331941,16.1169825 7.17226273,17.1857408 4.92580925,16.9734014 C1.19263117,16.6196202 -0.955822885,12.4633616 0.417102387,8.85959491 C3.95108164,-0.41724094 15.9032115,-1.38876232 23.5941663,1.32115952 C23.5994996,0.948806541 23.6038329,0.569250831 23.6269661,0.201770288 C25.2274901,0.370752022 26.877747,0.786392004 28.4124714,1.29997501 C30.5986585,2.03140534 31.6033193,3.53303366 31.9605172,5.94637244 C31.141922,6.65930164 30.0741949,7.17775708 28.985268,7.07465916 C27.8067416,6.96449974 26.2680839,6.24860471 24.4123615,4.9543727 C25.5232883,7.70948815 29.2475998,8.53949705 31.6724522,6.99783002 Z M30.4732593,4.27435009 C30.5089257,3.16364651 29.6853972,2.22644402 28.6358034,2.18739391 C28.1276064,2.16853971 27.6430759,2.35941209 27.2716114,2.7267514 C26.8988136,3.09416133 26.6859482,3.59319765 26.6680816,4.13121345 C26.6340818,5.24191703 27.455677,6.17770722 28.5046708,6.21809901 C29.0150678,6.23702383 29.4983983,6.04615145 29.8699295,5.67747045 C30.2413273,5.31006052 30.4541927,4.81236589 30.4732593,4.27435009 C30.5089257,3.16364651 30.4541927,4.81236589 30.4732593,4.27435009 Z" id="Shape"></path>
            </g>
        </g>
    </g>
</svg>