<svg id="图层_1" data-name="图层 1" xmlns="http://www.w3.org/2000/svg" viewBox="0 0 19.74 20"><defs><style>.cls-1,.cls-2{fill:#e8ad69;}.cls-1{fill-rule:evenodd;}.cls-3{fill:#fff;}</style></defs><title>txt</title><path class="cls-1" d="M15.78,0v3a.73.73,0,0,0,.73.72h3Z"/><path class="cls-1" d="M19.39,4.52H16.21a1.33,1.33,0,0,1-1.27-1.38V0H7.3a2,2,0,0,0-2,2V8h1V2a1,1,0,0,1,1-1h6.64V3.14a2.33,2.33,0,0,0,2.27,2.38h2.53V18a1,1,0,0,1-1,1H7.3a1,1,0,0,1-1-1V17h-1v1a2,2,0,0,0,2,2H17.74a2,2,0,0,0,2-2V4.52Z"/><path class="cls-2" d="M15,8H2a2,2,0,0,0-2,2v5a2,2,0,0,0,2,2H15a2,2,0,0,0,2-2V10A2,2,0,0,0,15,8Z"/><path class="cls-3" d="M3.83,13.22V14.8h-1V10.26H4.42c1.13,0,1.7.48,1.7,1.44a1.37,1.37,0,0,1-.51,1.11,1.89,1.89,0,0,1-1.28.41Zm0-2.21v1.47h.42c.57,0,.85-.25.85-.75S4.82,11,4.26,11Z"/><path class="cls-3" d="M6.81,14.8V10.26H8.37c1.61,0,2.42.74,2.42,2.21a2.21,2.21,0,0,1-.68,1.69,2.41,2.41,0,0,1-1.74.64Zm1-3.75v3H8.3a1.43,1.43,0,0,0,1.08-.41,1.57,1.57,0,0,0,.39-1.11,1.35,1.35,0,0,0-.41-1.06,1.51,1.51,0,0,0-1.06-.38Z"/><path class="cls-3" d="M14.14,11.05H12.52v1.17H14V13H12.52V14.8h-1V10.26h2.59Z"/></svg>