<svg id="图层_1" data-name="图层 1" xmlns="http://www.w3.org/2000/svg" viewBox="0 0 19.74 20"><defs><style>.cls-1,.cls-2{fill:#8fbf76;}.cls-1{fill-rule:evenodd;}.cls-3{fill:#fff;}</style></defs><title>txt</title><path class="cls-1" d="M15.78,0v3a.73.73,0,0,0,.73.72h3Z"/><path class="cls-1" d="M19.39,4.52H16.21a1.33,1.33,0,0,1-1.27-1.38V0H7.3a2,2,0,0,0-2,2V8h1V2a1,1,0,0,1,1-1h6.64V3.14a2.33,2.33,0,0,0,2.27,2.38h2.53V18a1,1,0,0,1-1,1H7.3a1,1,0,0,1-1-1V17h-1v1a2,2,0,0,0,2,2H17.74a2,2,0,0,0,2-2V4.52Z"/><path class="cls-2" d="M15,8H2a2,2,0,0,0-2,2v5a2,2,0,0,0,2,2H15a2,2,0,0,0,2-2V10A2,2,0,0,0,15,8Z"/><path class="cls-3" d="M4,13.22V14.8H3V10.26H4.55c1.13,0,1.7.48,1.7,1.44a1.37,1.37,0,0,1-.51,1.11,1.89,1.89,0,0,1-1.28.41ZM4,11v1.47h.42c.57,0,.85-.25.85-.75S5,11,4.39,11Z"/><path class="cls-3" d="M7.9,13.22V14.8h-1V10.26H8.5c1.13,0,1.69.48,1.69,1.44a1.37,1.37,0,0,1-.51,1.11,1.89,1.89,0,0,1-1.28.41ZM7.9,11v1.47h.42c.57,0,.85-.25.85-.75S8.89,11,8.33,11Z"/><path class="cls-3" d="M14,11.05H12.72V14.8h-1V11.05h-1.3v-.79H14Z"/></svg>