<svg id="图层_1" data-name="图层 1" xmlns="http://www.w3.org/2000/svg" viewBox="0 0 19.74 20"><defs><style>.cls-1,.cls-2{fill:#8fbf76;}.cls-1{fill-rule:evenodd;}.cls-3{fill:#fff;}</style></defs><title>txt</title><path class="cls-1" d="M15.78,0v3a.73.73,0,0,0,.73.72h3Z"/><path class="cls-1" d="M19.39,4.52H16.21a1.33,1.33,0,0,1-1.27-1.38V0H7.3a2,2,0,0,0-2,2V8h1V2a1,1,0,0,1,1-1h6.64V3.14a2.33,2.33,0,0,0,2.27,2.38h2.53V18a1,1,0,0,1-1,1H7.3a1,1,0,0,1-1-1V17h-1v1a2,2,0,0,0,2,2H17.74a2,2,0,0,0,2-2V4.52Z"/><path class="cls-2" d="M15,8H2a2,2,0,0,0-2,2v5a2,2,0,0,0,2,2H15a2,2,0,0,0,2-2V10A2,2,0,0,0,15,8Z"/><path class="cls-3" d="M3.37,13.06v1.22H2.62v-3.5H3.83c.86,0,1.3.37,1.3,1.11a1.06,1.06,0,0,1-.39.86,1.49,1.49,0,0,1-1,.31Zm0-1.7v1.13h.32q.66,0,.66-.57c0-.37-.22-.56-.65-.56Z"/><path class="cls-3" d="M6.4,13.06v1.22H5.66v-3.5h1.2c.87,0,1.31.37,1.31,1.11a1.07,1.07,0,0,1-.4.86,1.46,1.46,0,0,1-1,.31Zm0-1.7v1.13h.33c.43,0,.65-.19.65-.57s-.21-.56-.65-.56Z"/><path class="cls-3" d="M11.11,11.39h-1v2.89H9.36V11.39h-1v-.61h2.74Z"/><path class="cls-3" d="M14.38,14.28H13.5l-.63-1.16a.91.91,0,0,1-.07-.23h0a1.61,1.61,0,0,1-.08.23l-.63,1.16h-.89l1.12-1.75-1-1.75h.9l.52,1.07a1.45,1.45,0,0,1,.11.29h0a3.11,3.11,0,0,1,.12-.3l.57-1.06h.83l-1,1.74Z"/></svg>