<svg id="图层_1" data-name="图层 1" xmlns="http://www.w3.org/2000/svg" viewBox="0 0 19.74 20"><defs><style>.cls-1,.cls-2{fill:#7f82be;}.cls-1{fill-rule:evenodd;}.cls-3{fill:#fff;}</style></defs><title>txt</title><path class="cls-1" d="M15.78,0v3a.73.73,0,0,0,.73.72h3Z"/><path class="cls-1" d="M19.39,4.52H16.21a1.33,1.33,0,0,1-1.27-1.38V0H7.3a2,2,0,0,0-2,2V8h1V2a1,1,0,0,1,1-1h6.64V3.14a2.33,2.33,0,0,0,2.27,2.38h2.53V18a1,1,0,0,1-1,1H7.3a1,1,0,0,1-1-1V17h-1v1a2,2,0,0,0,2,2H17.74a2,2,0,0,0,2-2V4.52Z"/><path class="cls-2" d="M15,8H2a2,2,0,0,0-2,2v5a2,2,0,0,0,2,2H15a2,2,0,0,0,2-2V10A2,2,0,0,0,15,8Z"/><path class="cls-3" d="M6,14.8H4.91L4.2,13.62a1.81,1.81,0,0,0-.36-.47.53.53,0,0,0-.3-.11H3.25V14.8h-1V10.26H3.87q1.62,0,1.62,1.23a1.25,1.25,0,0,1-.27.8,1.43,1.43,0,0,1-.75.46h0a1.64,1.64,0,0,1,.7.69ZM3.25,11v1.3h.47a.77.77,0,0,0,.55-.19.7.7,0,0,0,.2-.5c0-.41-.24-.61-.73-.61Z"/><path class="cls-3" d="M10.41,14.8H9.35l-.34-1H7.36L7,14.8H6l1.66-4.54H8.78ZM8.78,13l-.51-1.57A1.31,1.31,0,0,1,8.2,11h0a1.69,1.69,0,0,1-.08.39L7.57,13Z"/><path class="cls-3" d="M14.72,14.8H13.61l-.71-1.18a1.81,1.81,0,0,0-.36-.47.48.48,0,0,0-.3-.11H12V14.8H11V10.26h1.59q1.62,0,1.62,1.23a1.25,1.25,0,0,1-.27.8,1.43,1.43,0,0,1-.75.46h0a1.59,1.59,0,0,1,.7.69ZM12,11v1.3h.47a.77.77,0,0,0,.55-.19.66.66,0,0,0,.2-.5c0-.41-.24-.61-.73-.61Z"/></svg>