<?xml version="1.0" encoding="UTF-8"?>
<svg width="20px" height="20px" viewBox="0 0 20 20" version="1.1" xmlns="http://www.w3.org/2000/svg" xmlns:xlink="http://www.w3.org/1999/xlink">
    <title>red hat</title>
    <desc>Created with Sketch.</desc>
    <g id="Page-1" stroke="none" stroke-width="1" fill="none" fill-rule="evenodd">
        <g id="2" transform="translate(-424.000000, -376.000000)" fill="#01AFC9">
            <g id="Group-33" transform="translate(250.000000, 366.000000)">
                <g id="Group-11" transform="translate(154.000000, 0.000000)">
                    <g id="red-hat" transform="translate(20.000000, 10.000000)">
                        <path d="M13.106063,14.454605 C13.0372447,14.5790941 12.9649218,14.6663616 12.8339758,14.7692684 C12.6762672,14.8921935 12.3688151,15.0360754 11.9463472,14.7723962 C11.7201389,14.6316422 11.7054832,14.5837859 11.3926148,14.6238226 C11.1689553,14.6525989 11.080065,14.4314588 11.160353,14.2466018 C11.2409596,14.062996 11.5713512,13.9141096 11.9817122,14.1499507 C12.1674579,14.2562982 12.4554752,14.482443 12.7081276,14.2835107 C12.8126294,14.2006222 12.8753943,14.1461973 13.0203587,13.9813587 C13.0267308,13.9741646 13.0366075,13.9694728 13.0464842,13.9694728 C13.0557237,13.9694728 13.0636888,13.9726007 13.0700609,13.9782309 C13.1274094,14.0335941 13.226495,14.2187638 13.106063,14.454605 M18.6481664,14.8268211 C17.8561188,14.8268211 17.1360754,14.9610066 16.6059196,15.1790189 C16.546978,15.2068569 16.5049224,15.266912 16.5049224,15.3347867 C16.5049224,15.3604352 16.5112945,15.3860837 16.5208526,15.4067276 C16.5842546,15.5859544 16.4810272,15.7792566 15.9671201,15.8893575 C15.2040654,16.0545088 14.7229745,16.8264664 14.4477013,17.0829514 C14.124319,17.3851034 13.2118393,17.5696475 13.3488387,17.3897952 C13.4571638,17.2493539 13.8678434,16.8114526 14.1179469,16.3382064 C14.3409692,15.9146932 14.5404148,15.7936447 14.8147322,15.3910883 C14.8947016,15.2719166 15.2066142,14.8555975 15.2977347,14.5265459 C15.3993692,14.205314 15.36496,13.8024447 15.403511,13.6360422 C15.460541,13.3967604 15.6899353,12.8765962 15.7077771,12.5832023 C15.7179724,12.4171125 15.0017523,12.8199818 14.6621213,12.8199818 C14.3231274,12.8199818 13.9927358,12.6197983 13.6887884,12.6057229 C13.3134737,12.5891452 13.0726097,12.8909844 12.7320228,12.8371851 C12.5389492,12.8068447 12.3755058,12.6391911 12.0361933,12.627618 C11.553828,12.6104147 10.9637748,12.8909844 9.85567273,12.8550139 C8.76636824,12.8215457 7.7605378,11.5034627 7.62226399,11.2938956 C7.46105075,11.0486708 7.26542836,11.0486708 7.05037117,11.2410346 C6.83626979,11.4346496 6.5721477,11.2835736 6.49695734,11.1531416 C6.35422309,10.9088552 5.97189919,10.1913225 5.37993437,10.039621 C4.56176124,9.83161786 4.14693982,10.485342 4.20046516,11.0045679 C4.25526492,11.5319262 4.60317966,11.6804999 4.76343709,11.9601312 C4.92433173,12.2413264 5.00653137,12.4218043 5.30952305,12.546919 C5.52362443,12.6335609 5.60327524,12.763993 5.5398732,12.9363384 C5.48348042,13.0874144 5.26013955,13.1221337 5.11390066,13.1280767 C4.80230669,13.1440288 4.58406347,13.0611403 4.42380603,12.9607358 C4.23869755,12.8440664 4.08736101,12.683294 3.92614777,12.4089801 C3.73944627,12.1071409 3.44410106,11.9754578 3.10096537,11.9754578 C2.9368847,11.9754578 2.78363654,12.0192479 2.64759295,12.088061 C2.10947207,12.3630004 1.46812375,12.5256495 0.778347724,12.5256495 L0,12.5256495 C1.49170039,16.8702565 5.67687259,20 10.6056648,20 C14.5432823,20 18.0052251,18.0034826 20,14.9850912 C19.5682926,14.8875017 19.1107783,14.8268211 18.6481664,14.8268211" id="Fill-1"></path>
                        <path d="M11.4829651,0.834275521 C11.4807676,0.835473474 11.4785702,0.835473474 11.4766867,0.835473474 C11.4572238,0.835473474 11.4409,0.820798543 11.4409,0.803128728 C11.4409,0.790550215 11.4496897,0.779169656 11.4616186,0.773778865 C11.7083585,0.649491182 12.076271,0.5509595 12.4972357,0.50992959 C12.6237448,0.497351078 12.7483705,0.491660798 12.8667177,0.489863868 C12.8880642,0.489863868 12.9084689,0.490163356 12.9298153,0.490163356 C13.6364458,0.506036241 14.2021269,0.773479377 14.194279,1.08914014 C14.1854892,1.40420193 13.6066236,1.64798549 12.900307,1.63271158 C12.6702048,1.62762027 12.4557984,1.59557502 12.2715283,1.54496148 C12.2492401,1.5392712 12.2335442,1.52160138 12.2335442,1.5006372 C12.2335442,1.47907403 12.2492401,1.46140422 12.2718422,1.4566124 C12.7122698,1.3586797 13.0098645,1.20025034 12.9894598,1.05020665 C12.9615211,0.851046871 12.3848529,0.742033095 11.7011384,0.807022077 C11.6267397,0.815108263 11.5535967,0.824092915 11.4829651,0.834275521 M10.1444167,2.84204571 C8.87179117,2.93099376 8.73900365,3.06216968 8.50073953,3.3041563 C8.16359108,3.64497409 7.72096603,2.86061399 7.72096603,2.86061399 C7.455391,2.80700557 7.13299672,2.39820391 7.30627972,2.01575723 C7.47767921,1.63810237 7.79442295,1.75160847 7.89362119,1.86900792 C8.01416589,2.01246286 8.27189296,2.24726176 8.60590222,2.23827711 C8.93959756,2.23019092 9.32571729,2.16310552 9.86345964,2.16310552 C10.408736,2.16310552 10.774765,2.35687451 10.7957975,2.52339006 C10.813377,2.66564705 10.7512211,2.80041682 10.1444167,2.84204571 M17.2239062,5.55301465 C17.1146626,5.90341607 16.9599008,6.35025275 16.2705358,6.68687771 C16.1703958,6.73569431 16.1320977,6.6560304 16.1782437,6.58055933 C16.4394239,6.15738223 16.485256,6.05136334 16.5609104,5.88514728 C16.6670148,5.64106424 16.7216366,5.29455616 16.5119391,4.57069272 C16.0969389,3.14782336 15.2317795,1.24577257 14.6030008,0.627928017 C13.9961964,0.0322456028 12.8971678,-0.135467898 11.9042437,0.107117701 C11.5375869,0.196964219 10.8215388,0.552157454 9.49366367,0.266745015 C7.19609433,-0.226512369 6.8558067,0.87171157 6.72364702,1.34909607 C6.59180126,1.82737903 6.2747436,3.18675685 6.2747436,3.18675685 C6.16926699,3.7402114 6.03114286,4.70246761 9.59976812,5.35115947 C11.2610247,5.65334326 11.3457827,6.06244441 11.4201814,6.35803945 C11.5513993,6.885738 11.7623525,7.18852077 11.9996749,7.34006189 C12.2376251,7.48980609 11.9996749,7.61619019 11.7366112,7.64134722 C11.028725,7.71202648 8.41221452,6.99565024 6.8642825,6.15738223 C5.59824928,5.41854436 5.57658891,4.75368013 5.86633566,4.18974348 C3.95363037,3.99238063 2.51776726,4.36105084 2.25752884,5.22417639 C1.81050892,6.70814138 5.67484539,9.24001626 10.0744129,10.5107455 C14.6915258,11.8440678 19.4398567,10.9138569 19.9675537,8.14478721 C20.2077013,6.88723544 19.0970578,5.956725 17.2239062,5.55301465" id="Fill-4"></path>
                    </g>
                </g>
            </g>
        </g>
    </g>
</svg>