<?xml version="1.0" encoding="UTF-8"?>
<svg width="32px" height="33px" viewBox="0 0 32 33" version="1.1" xmlns="http://www.w3.org/2000/svg" xmlns:xlink="http://www.w3.org/1999/xlink">
    <title>Group 34</title>
    <desc>Created with Sketch.</desc>
    <defs></defs>
    <g id="1，云主机-创建云主机" stroke="none" stroke-width="1" fill="none" fill-rule="evenodd" transform="translate(-447.000000, -401.000000)">
        <g id="Group-33" transform="translate(199.000000, 379.000000)" fill="#1CAFC6">
            <g id="Group-11" transform="translate(226.000000, 0.000000)">
                <g id="Page-1" transform="translate(22.000000, 22.000000)">
                    <g id="Group-34">
                        <path d="M20.5956833,23.8586906 C20.4875363,24.0639094 20.3738819,24.2077687 20.1681023,24.3774094 C19.9202656,24.58005 19.4371091,24.8172375 18.7732071,24.3825656 C18.4177241,24.1505344 18.3946928,24.0716437 17.9030248,24.1376437 C17.5515472,24.1850812 17.4118574,23.8205344 17.5380288,23.5158 C17.664701,23.2131281 18.1839064,22.9676906 18.8287826,23.3564719 C19.1206792,23.5317844 19.5732941,23.9045812 19.9703336,23.5766437 C20.1345567,23.4400031 20.2331907,23.3502844 20.4610003,23.07855 C20.4710139,23.0666906 20.486535,23.0589562 20.5020561,23.0589562 C20.5165758,23.0589562 20.5290928,23.0641125 20.5391064,23.0733937 C20.6292288,23.1646594 20.7849404,23.4699094 20.5956833,23.8586906 M29.3050166,24.4722844 C28.0603254,24.4722844 26.928788,24.6934875 26.0956561,25.0528781 C26.0030302,25.0987687 25.9369404,25.1977687 25.9369404,25.3096594 C25.9369404,25.3519406 25.946954,25.3942219 25.9619744,25.4282531 C26.0616098,25.7237062 25.8993894,26.0423625 25.0917921,26.2238625 C23.8926629,26.4961125 23.1366356,27.768675 22.7040479,28.1914875 C22.1958574,28.6895812 20.7619091,28.9938 20.9772016,28.6973156 C21.1474329,28.4658 21.7928098,27.743925 22.1858438,26.9637844 C22.53632,26.2656281 22.8497459,26.0660812 23.2808316,25.4024719 C23.4065023,25.2060187 23.8966683,24.5197219 24.0398629,23.9772844 C24.1995799,23.4477375 24.1455064,22.7836125 24.2060887,22.5093 C24.2957105,22.1148469 24.6562003,21.2573625 24.6842384,20.7737062 C24.7002601,20.4999094 23.5747309,21.1640344 23.0410057,21.1640344 C22.5082819,21.1640344 21.9890765,20.8340344 21.5114275,20.8108312 C20.9216261,20.7835031 20.5431118,21.2810812 20.0078846,21.1923937 C19.7044724,21.1423781 19.4476234,20.8660031 18.9143989,20.846925 C18.156369,20.8185656 17.2291091,21.2810812 15.4877431,21.2217844 C13.7759173,21.1666125 12.1952697,18.9937687 11.9779744,18.6483 C11.7246302,18.24405 11.4172125,18.24405 11.0792533,18.5611594 C10.7427962,18.8803312 10.3277322,18.6312844 10.2095717,18.4162687 C9.98526694,18.0135656 9.38445061,16.8307219 8.45418667,16.5806437 C7.16843973,16.2377531 6.51655401,17.3154094 6.6006683,18.1713469 C6.68678531,19.0406906 7.23352816,19.2856125 7.48537034,19.7465812 C7.73821388,20.2101281 7.86738939,20.5076437 8.34353633,20.7138937 C8.67999347,20.8567219 8.80516354,21.0717375 8.70552816,21.3558469 C8.61690776,21.6048937 8.26593088,21.6621281 8.03611864,21.671925 C7.54645333,21.6982219 7.20348735,21.5615812 6.95164517,21.3960656 C6.66074993,21.2037375 6.4229268,20.9387062 6.16958259,20.4865031 C5.87618395,19.988925 5.41205333,19.7718469 4.87282068,19.7718469 C4.61497034,19.7718469 4.37414313,19.8440344 4.16035265,19.9574719 C3.31470367,20.4107062 2.30683429,20.6788312 1.2228615,20.6788312 L-0.000300408163,20.6788312 C2.34388463,27.8408625 8.92082068,33.0002062 16.6663445,33.0002062 C22.854252,33.0002062 28.2946438,29.7089719 31.429403,24.7331906 C30.7509812,24.5723156 30.0320044,24.4722844 29.3050166,24.4722844" id="Fill-1"></path>
                        <path d="M17.9423691,1.4040857 C17.9388601,1.40610186 17.9353511,1.40610186 17.9323434,1.40610186 C17.9012639,1.40610186 17.8751972,1.38140395 17.8751972,1.35166565 C17.8751972,1.33049601 17.8892331,1.31134253 17.9082818,1.30226983 C18.3022902,1.09309366 18.8897939,0.927264839 19.5620143,0.858211501 C19.7640314,0.837041864 19.9630407,0.827465124 20.1520244,0.82444089 C20.1861116,0.82444089 20.218695,0.824944929 20.2527823,0.824944929 C21.3811702,0.851658994 22.2844821,1.30176579 22.27195,1.83302286 C22.2579141,2.36327185 21.3335483,2.77355957 20.2056617,2.74785359 C19.8382212,2.73928492 19.495845,2.68535275 19.2015919,2.60017017 C19.1660008,2.59059343 19.1409366,2.56085513 19.1409366,2.5255724 C19.1409366,2.4892816 19.1660008,2.4595433 19.2020932,2.45147867 C19.9053932,2.28665793 20.3806094,2.02002132 20.348026,1.7674978 C20.3034118,1.43231188 19.382555,1.2488417 18.2907607,1.35821816 C18.1719567,1.37182721 18.0551577,1.38694838 17.9423691,1.4040857 M15.8048985,4.78316293 C13.7726974,4.9328625 13.5606547,5.15363157 13.1801809,5.56089506 C12.641803,6.1344914 11.934994,4.81441335 11.934994,4.81441335 C11.5109087,4.72419037 10.996091,4.03617718 11.2727992,3.39251942 C11.5464997,2.75692629 12.0522943,2.94795705 12.2106997,3.14554033 C12.4031923,3.38697499 12.8147456,3.78214154 13.3481107,3.76702037 C13.8809745,3.75341132 14.4975526,3.64050659 15.3562503,3.64050659 C16.2269788,3.64050659 16.8114747,3.96661981 16.8450607,4.24686547 C16.8731325,4.48628398 16.7738785,4.71310151 15.8048985,4.78316293 M27.1098319,9.34572365 C26.9353855,9.93544924 26.688253,10.6874754 25.5874356,11.2540152 C25.4275263,11.3361735 25.3663698,11.2020992 25.4400584,11.0750813 C25.8571258,10.3628743 25.9303131,10.1844445 26.0511223,9.90470287 C26.2205559,9.49391111 26.3077792,8.91073803 25.9729222,7.69247584 C25.3102261,5.29778672 23.9286902,2.09663524 22.9246205,1.05680285 C21.9556405,0.0542693495 20.2006488,-0.227992472 18.6150908,0.180279091 C18.0295923,0.331490781 16.8861659,0.929280995 14.7657389,0.44893186 C11.0968489,-0.381220317 10.5534582,1.46709057 10.3424181,2.27052868 C10.1318792,3.07547891 9.62558342,5.36331178 9.62558342,5.36331178 C9.45715235,6.29477579 9.23658784,7.91425299 14.9351726,9.00600139 C17.587962,9.51457671 17.7233084,10.2030939 17.8421125,10.7005804 C18.0516488,11.5886971 18.3885109,12.0982804 18.7674808,12.3533242 C19.1474533,12.6053436 18.7674808,12.8180481 18.3474057,12.8603874 C17.2170126,12.9793406 13.0388191,11.7736794 10.5669928,10.3628743 C8.54531864,9.11941016 8.51073011,8.00044365 8.97341429,7.05133828 C5.91909719,6.7191766 3.62622891,7.33964857 3.21066533,8.79228887 C2.49683839,11.2898019 8.66763168,15.5509474 15.6931124,17.6895847 C23.0659823,19.9335662 30.6483884,18.3680211 31.491045,13.7076769 C31.8745265,11.5912172 30.1009874,10.0251682 27.1098319,9.34572365" id="Fill-4"></path>
                    </g>
                </g>
            </g>
        </g>
    </g>
</svg>