<svg id="图层_1" data-name="图层 1" xmlns="http://www.w3.org/2000/svg" viewBox="0 0 19.74 20"><defs><style>.cls-1{fill:#8fbf76;}.cls-1,.cls-2{fill-rule:evenodd;}.cls-2,.cls-3{fill:#1f90d0;}.cls-4{fill:#fff;}</style></defs><title>txt</title><path class="cls-1" d="M15.78,0v3a.73.73,0,0,0,.73.72h3Z"/><path class="cls-1" d="M19.39,4.52H16.21a1.33,1.33,0,0,1-1.27-1.38V0H7.3a2,2,0,0,0-2,2V8h1V2a1,1,0,0,1,1-1h6.64V3.14a2.33,2.33,0,0,0,2.27,2.38h2.53V18a1,1,0,0,1-1,1H7.3a1,1,0,0,1-1-1V17h-1v1a2,2,0,0,0,2,2H17.74a2,2,0,0,0,2-2V4.52Z"/><path class="cls-2" d="M15.78,0v3a.73.73,0,0,0,.73.72h3Z"/><path class="cls-2" d="M19.39,4.52H16.21a1.33,1.33,0,0,1-1.27-1.38V0H7.3a2,2,0,0,0-2,2V8h1V2a1,1,0,0,1,1-1h6.64V3.14a2.33,2.33,0,0,0,2.27,2.38h2.53V18a1,1,0,0,1-1,1H7.3a1,1,0,0,1-1-1V17h-1v1a2,2,0,0,0,2,2H17.74a2,2,0,0,0,2-2V4.52Z"/><path class="cls-3" d="M15,8H2a2,2,0,0,0-2,2v5a2,2,0,0,0,2,2H15a2,2,0,0,0,2-2V10A2,2,0,0,0,15,8Z"/><path class="cls-4" d="M4.46,14.28H3.6l-.54-.91A1.78,1.78,0,0,0,2.78,13a.4.4,0,0,0-.23-.08H2.32v1.36H1.58v-3.5H2.8c.84,0,1.25.32,1.25,1a.92.92,0,0,1-.21.61,1.12,1.12,0,0,1-.57.36h0a1.19,1.19,0,0,1,.53.53ZM2.32,11.35v1h.37a.61.61,0,0,0,.42-.16.49.49,0,0,0,.16-.38c0-.31-.19-.47-.57-.47Z"/><path class="cls-4" d="M8,14.28V12.16c0-.2,0-.44,0-.74H8c0,.22-.08.37-.1.45L7,14.28H6.45l-.87-2.39a4.28,4.28,0,0,1-.11-.47h0c0,.29,0,.59,0,.88v2H4.8v-3.5H5.89l.75,2.11a2.64,2.64,0,0,1,.13.5h0c0-.2.1-.36.15-.5l.75-2.11H8.74v3.5Z"/><path class="cls-4" d="M12.43,10.78l-1.22,3.5h-.84l-1.19-3.5H10l.75,2.47a1.55,1.55,0,0,1,.07.35h0a1.75,1.75,0,0,1,.07-.36l.76-2.46Z"/><path class="cls-4" d="M12.86,14.28v-3.5H14.1A1.56,1.56,0,0,1,15,11a.7.7,0,0,1,.31.6.72.72,0,0,1-.2.5,1,1,0,0,1-.48.29h0a1,1,0,0,1,.59.27.78.78,0,0,1,.23.57,1,1,0,0,1-.34.76,1.47,1.47,0,0,1-.93.28Zm.74-2.94v.86H14a.65.65,0,0,0,.41-.12.43.43,0,0,0,.14-.34c0-.27-.19-.4-.58-.4Zm0,1.42v1H14a.64.64,0,0,0,.44-.13.44.44,0,0,0,.16-.36.39.39,0,0,0-.16-.34.64.64,0,0,0-.44-.13Z"/></svg>