<?xml version="1.0" encoding="UTF-8"?>
<svg width="10px" height="12px" viewBox="0 0 10 12" version="1.1" xmlns="http://www.w3.org/2000/svg" xmlns:xlink="http://www.w3.org/1999/xlink">
    <g id="Page-1" stroke="none" stroke-width="1" fill="none" fill-rule="evenodd">
        <g id="画板" transform="translate(-123.000000, -90.000000)" fill="#E05C69">
            <path d="M125,95 L125,93 C125,91.3431458 126.343146,90 128,90 C129.656854,90 131,91.3431458 131,93 L131,95 L132,95 C132.552285,95 133,95.4477153 133,96 L133,101 C133,101.552285 132.552285,102 132,102 L124,102 C123.447715,102 123,101.552285 123,101 L123,96 C123,95.4477153 123.447715,95 124,95 L125,95 Z M126,95 L130,95 L130,93 C130,91.8954305 129.104569,91 128,91 C126.895431,91 126,91.8954305 126,93 L126,95 Z M128.5,97.5 C128.776142,97.5 129,97.2761424 129,97 C129,96.7238576 128.776142,96.5 128.5,96.5 L127.5,96.5 C127.223858,96.5 127,96.7238576 127,97 C127,97.2761424 127.223858,97.5 127.5,97.5 L127.5,100 C127.5,100.276142 127.723858,100.5 128,100.5 C128.276142,100.5 128.5,100.276142 128.5,100 L128.5,97.5 Z" id="锁定"></path>
        </g>
    </g>
</svg>