<?xml version="1.0" encoding="UTF-8"?>
<svg width="13px" height="12px" viewBox="0 0 13 12" version="1.1" xmlns="http://www.w3.org/2000/svg" xmlns:xlink="http://www.w3.org/1999/xlink">
    <g id="Page-1" stroke="none" stroke-width="1" fill="none" fill-rule="evenodd">
        <g id="画板" transform="translate(-135.000000, -90.000000)" fill="#1FB9A5">
            <path d="M135,95 L135,93 C135,91.3431458 136.343146,90 138,90 C139.656854,90 141,91.3431458 141,93 L141,95 L147,95 C147.552285,95 148,95.4477153 148,96 L148,101 C148,101.552285 147.552285,102 147,102 L139,102 C138.447715,102 138,101.552285 138,101 L138,96 C138,95.4477153 138.447715,95 139,95 L140,95 L140,93 C140,91.8954305 139.104569,91 138,91 C136.895431,91 136,91.8954305 136,93 L136,95 C136,95.2761424 135.776142,95.5 135.5,95.5 C135.223858,95.5 135,95.2761424 135,95 Z M143.5,97.5 C143.776142,97.5 144,97.2761424 144,97 C144,96.7238576 143.776142,96.5 143.5,96.5 L142.5,96.5 C142.223858,96.5 142,96.7238576 142,97 C142,97.2761424 142.223858,97.5 142.5,97.5 L142.5,100 C142.5,100.276142 142.723858,100.5 143,100.5 C143.276142,100.5 143.5,100.276142 143.5,100 L143.5,97.5 Z" id="解锁"></path>
        </g>
    </g>
</svg>