<?xml version="1.0" encoding="UTF-8"?>
<svg width="14px" height="14px" viewBox="0 0 14 14" version="1.1" xmlns="http://www.w3.org/2000/svg" xmlns:xlink="http://www.w3.org/1999/xlink">
    <g id="Artboard" stroke="none" stroke-width="1" fill="none" fill-rule="evenodd" transform="translate(-21.000000, -34.000000)">
        <g id="安全日志" transform="translate(21.000000, 34.000000)" fill="#FFFFFF">
            <path d="M1,1 L1,13 L13,13 L13,3.44400176 L10.1724393,1 L1,1 Z M0.5,0 L10.5447184,0 L14,2.98657227 L14,13.5 C14,13.7761424 13.7761424,14 13.5,14 L0.5,14 C0.223857625,14 9.59361329e-16,13.7761424 -5.55111512e-17,13.5 L0,0.5 C-3.38176876e-17,0.223857625 0.223857625,5.07265313e-17 0.5,0 Z" id="Rectangle-54" fill-rule="nonzero"></path>
            <path d="M1,13 L13,13 L13,3.98657227 L10.6447184,3.98657227 C10.0372052,3.98657227 9.54471842,3.49408549 9.54471842,2.88657227 L9.54471842,1 L1,1 L1,13 Z M0.5,0 L10.5447184,0 L10.5447184,2.88657227 C10.5447184,2.94180074 10.5894899,2.98657227 10.6447184,2.98657227 L14,2.98657227 L14,13.5 C14,13.7761424 13.7761424,14 13.5,14 L0.5,14 C0.223857625,14 0,13.7761424 0,13.5 L0,0.5 C0,0.223857625 0.223857625,0 0.5,0 Z" id="Rectangle-54" fill-rule="nonzero"></path>
            <rect id="Rectangle-55" x="9" y="5" width="2" height="1" rx="0.200000003"></rect>
            <rect id="Rectangle-55-Copy-2" x="8" y="8" width="3" height="1" rx="0.200000003"></rect>
            <rect id="Rectangle-55-Copy-3" x="3" y="11" width="8" height="1" rx="0.200000003"></rect>
            <path d="M3.06292281,3.89079579 C3.21166929,4.86050703 3.39796032,5.76662083 3.62161738,6.6090711 C3.69052022,6.8686078 3.94944206,7.12630754 4.35685989,7.35118171 C4.55153999,7.45863534 4.76381627,7.54981119 4.97646784,7.62379093 C5.02421064,7.64040026 5.06760827,7.6547027 5.10578001,7.66672361 C5.14040044,7.65258909 5.17930789,7.63624777 5.22181988,7.61777851 C5.42173944,7.53092381 5.62136431,7.43058752 5.80485884,7.31959386 C6.20578864,7.07707619 6.45342857,6.82543042 6.49290102,6.63558571 C6.68249886,5.72370552 6.85096708,4.80610718 6.99830575,3.88278429 L6.1434447,3 L3.96095664,3 L3.06292281,3.89079579 Z M6.56710243,2 L8.0632855,3.5450545 L8.0250923,3.79090485 C7.86618023,4.81382468 7.68180351,5.82990974 7.47196223,6.8391518 C7.36066512,7.37444073 6.94057696,7.80132428 6.32242664,8.17523606 C6.09700103,8.31159333 5.85849719,8.43147113 5.62028805,8.53496067 C5.47674773,8.59732151 5.36322083,8.64111464 5.29381881,8.66535179 L5.15370848,8.71428228 L5.00959184,8.67884935 C4.71719961,8.60696095 4.29907176,8.46149768 3.87363113,8.22667583 C3.25065048,7.88282182 2.80823783,7.44249734 2.65509845,6.86566641 C2.40225203,5.91326844 2.19603098,4.88673924 2.03620732,3.78599441 L2,3.53662567 L3.54911132,2 L6.56710243,2 Z" id="Path-4" fill-rule="nonzero"></path>
        </g>
    </g>
</svg>