<?xml version="1.0" encoding="UTF-8"?>
<svg width="30px" height="25px" viewBox="0 0 30 25" version="1.1" xmlns="http://www.w3.org/2000/svg" xmlns:xlink="http://www.w3.org/1999/xlink">
    <title>Shape</title>
    <desc>Created with Sketch.</desc>
    <defs></defs>
    <g id="1，云主机-创建云主机" stroke="none" stroke-width="1" fill="none" fill-rule="evenodd" transform="translate(-222.000000, -584.000000)">
        <g id="Group-33" transform="translate(199.000000, 379.000000)" fill="#1CAFC6" fill-rule="nonzero">
            <g id="Group-18" transform="translate(0.000000, 176.000000)">
                <g id="EPC-SUSE" transform="translate(23.000000, 29.000000)">
                    <path d="M4.97922685,15.5902507 C2.53764614,15.2763721 0.502995532,12.7653436 0.808193151,10.254315 C1.01165822,7.63866019 2.84284376,5.54613635 4.77576181,4.08136969 C7.8277377,1.88421967 11.4901088,0.524079195 15.2542124,0.837957739 C17.492328,0.837957739 19.7304437,1.36108871 21.8668268,1.98884585 C21.6633617,0.105574409 24.1049425,1.77959346 25.1222677,1.67496728 C26.4447906,2.09347203 28.2759762,2.40735061 28.6829063,3.97674348 C29.2933015,5.02300538 29.5984991,6.48777207 27.9707786,6.69702446 C26.0378605,7.42940779 24.206675,5.96464114 22.5789545,5.12763159 C22.7824196,5.75538874 22.8841521,6.38314589 23.5962798,6.48777207 C25.1222677,7.32478161 27.0551858,7.95253876 28.6829063,7.01090304 C29.9036966,6.59239828 28.3777087,8.58029591 27.665581,8.37104352 C25.7326629,9.20805306 23.5962798,8.99880066 21.4598967,8.7895483 C19.7304437,8.7895483 20.1373738,11.1959507 20.8495015,12.2422126 C21.2564316,12.8699698 21.5616292,13.4977269 20.6460365,12.8699698 C19.1200485,12.451465 18.2044557,11.0913245 17.0853979,10.0450626 C15.8646075,8.99880069 13.7282244,8.7895483 12.8126317,10.1496888 C12.4057015,10.9866983 12.6091666,11.928334 12.6091666,12.7653436 C11.9987714,12.451465 11.3883762,12.1375864 10.8797136,11.8237078 C10.4727835,9.31267924 8.13293529,7.11552922 5.58962203,7.53403401 C3.65670397,7.63866019 2.13071603,9.83581021 2.94457628,11.7190816 C3.45323893,13.4977269 5.58962206,14.2301102 7.11560998,13.4977269 C8.64159792,12.7653436 8.13293526,10.1496888 6.40348228,10.0450626 C4.87749433,9.62655784 4.87749433,12.1375864 6.40348228,11.4052031 C8.03120274,12.2422126 5.38615699,13.4977269 4.67402926,12.451465 C3.35150639,11.6144554 3.65670397,9.41730542 5.0809594,8.89417448 C7.21734253,7.84791258 9.65892324,10.0450626 9.45545817,12.3468388 C9.15026058,14.7532412 6.91214494,16.0087555 4.97922685,15.5902507 Z M27.1569183,6.06926732 C28.7846388,5.44151017 28.1742436,2.616603 26.4447906,2.82585539 C24.8170702,2.72122921 24.1049425,5.23225781 25.5291979,5.96464114 C25.936128,6.38314589 26.6482557,6.38314589 27.1569183,6.06926732 Z M26.0378605,5.65076256 C24.206675,5.02300541 25.936128,2.30272443 27.2586509,3.66286491 C28.0725111,4.60450063 27.1569183,6.1738935 26.0378605,5.65076256 Z M26.9534533,4.49987445 C27.4621159,3.24436015 25.0205352,4.49987445 26.6482557,4.60450063 L26.8517208,4.60450063 L26.9534533,4.49987445 Z M9.45545817,23.8557199 C7.8277377,23.6464675 7.8277377,21.6585698 7.92947022,20.4030555 C7.92947022,19.8799246 7.8277377,19.2521674 8.03120274,18.8336627 C9.2519931,17.6827746 9.9641208,19.566046 9.65892324,20.7169341 C9.76065576,21.1354389 9.55719072,21.763196 9.76065576,22.1817008 C10.0658533,22.7048317 10.777981,22.3909532 11.2866437,22.4955793 C11.7953064,22.4955793 12.4057015,22.7048317 12.7108991,22.1817008 C12.8126317,21.0308127 12.6091666,19.8799246 12.9143642,18.8336627 C14.6438172,17.7874008 14.6438172,20.4030555 14.4403521,21.4493174 C14.4403521,22.1817008 14.5420846,23.0187103 14.3386196,23.7510936 C13.6264919,24.6927294 13.0160967,23.4372151 12.303969,23.5418413 C11.4901087,23.7510937 10.4727835,24.1695984 9.45545817,23.8557199 Z M1.11339074,23.7510936 C0.909925671,23.4372151 0.604728082,22.1817008 1.41858833,22.3909532 L4.87749433,22.3909532 C6.09828469,20.9261865 3.86016904,20.7169341 2.84284373,20.9261865 C1.4185883,21.1354389 0.502995532,19.566046 0.909925671,18.3105317 C1.11339074,16.9503912 2.63937869,16.6365127 3.75843649,16.7411388 C4.67402926,16.845765 6.70867987,16.2180079 6.30174976,17.8920269 C6.30174976,18.4151579 5.48788951,17.9966531 5.0809594,18.1012793 C4.16536663,18.2059055 2.23244858,17.6827746 2.53764614,19.2521674 C3.65670397,19.9845508 5.48788951,19.042915 6.5052148,20.1938031 C7.11560998,21.3446913 7.01387746,23.1233365 5.69135458,23.7510936 C5.0809594,24.0649722 4.3688317,23.8557198 3.65670397,23.960346 L1.21512326,23.960346 C1.21512326,23.8557199 1.11339074,23.7510936 1.11339074,23.7510936 Z M15.8646075,23.7510936 C15.6611425,23.4372151 15.3559449,22.1817008 16.1698051,22.3909532 L19.6287111,22.3909532 C20.8495015,21.0308127 18.8148509,20.6123079 17.7975256,20.9261865 C16.3732702,21.2400651 15.2542124,19.7752984 15.6611425,18.4151579 C15.8646075,16.845765 17.5940605,16.6365126 18.8148509,16.7411388 C19.5269786,16.7411388 20.2391063,16.6365127 20.8495015,16.845765 C21.2564316,17.0550174 21.4598967,18.4151579 20.8495015,18.2059055 C19.7304437,18.2059055 18.7131184,18.1012793 17.5940606,18.3105317 C16.4750027,20.089177 19.3235136,19.4614198 20.2391063,19.6706722 C21.7650943,19.7752984 21.8668268,21.763196 21.4598967,22.9140841 C21.0529666,23.6464675 20.3408388,24.0649722 19.5269786,23.960346 L16.1698051,23.960346 C15.9663401,23.8557199 15.8646075,23.7510936 15.8646075,23.7510936 Z M26.0378605,20.9261865 C27.0551858,20.8215603 28.1742436,21.2400651 28.9881039,20.6123079 C29.395034,19.3567936 29.395034,17.368896 27.9707786,16.845765 C26.6482557,16.7411388 25.2240003,16.6365126 23.7997449,16.9503912 C22.477222,17.5781484 22.7824196,19.3567936 22.7824196,20.5076817 C22.7824196,21.6585698 22.6806871,23.2279627 24.0032099,23.7510936 C25.1222678,23.960346 26.3430581,23.8557198 27.4621159,23.8557199 C28.2759762,23.960346 28.1742436,22.9140841 28.1742436,22.3909532 L25.936128,22.3909532 C24.8170702,22.7048317 24.3084075,21.9724484 24.5118726,20.9261865 L26.0378605,20.9261865 Z M24.5118726,18.4151579 C25.3257328,17.9966531 27.5638485,17.6827746 27.5638485,19.1475412 L27.5638485,19.566046 L25.1222677,19.566046 C24.3084075,19.7752984 24.3084075,19.042915 24.5118726,18.4151579 Z" id="Shape"></path>
                </g>
            </g>
        </g>
    </g>
</svg>