<svg id="图层_1" data-name="图层 1" xmlns="http://www.w3.org/2000/svg" viewBox="0 0 19.74 20"><defs><style>.cls-1,.cls-2{fill:#e8ad69;}.cls-1{fill-rule:evenodd;}.cls-3{fill:#fff;}</style></defs><title>txt</title><path class="cls-1" d="M15.78,0v3a.73.73,0,0,0,.73.72h3Z"/><path class="cls-1" d="M19.39,4.52H16.21a1.33,1.33,0,0,1-1.27-1.38V0H7.3a2,2,0,0,0-2,2V8h1V2a1,1,0,0,1,1-1h6.64V3.14a2.33,2.33,0,0,0,2.27,2.38h2.53V18a1,1,0,0,1-1,1H7.3a1,1,0,0,1-1-1V17h-1v1a2,2,0,0,0,2,2H17.74a2,2,0,0,0,2-2V4.52Z"/><path class="cls-2" d="M15,8H2a2,2,0,0,0-2,2v5a2,2,0,0,0,2,2H15a2,2,0,0,0,2-2V10A2,2,0,0,0,15,8Z"/><path class="cls-3" d="M2.08,13.66a1.92,1.92,0,0,0,1.25.45A1,1,0,0,0,3.92,14a.41.41,0,0,0,.2-.35A.49.49,0,0,0,4,13.27a2.93,2.93,0,0,0-.83-.44c-.71-.3-1.07-.74-1.07-1.31a1.16,1.16,0,0,1,.48-1,2.18,2.18,0,0,1,1.28-.35,3.06,3.06,0,0,1,1.12.18v.9A1.92,1.92,0,0,0,3.87,11a1.14,1.14,0,0,0-.57.13.4.4,0,0,0-.22.35.46.46,0,0,0,.15.33,2.84,2.84,0,0,0,.72.4,2.4,2.4,0,0,1,.93.61,1.21,1.21,0,0,1,.26.77,1.15,1.15,0,0,1-.47,1,2.15,2.15,0,0,1-1.31.35,2.8,2.8,0,0,1-1.28-.26Z"/><path class="cls-3" d="M11.77,10.26,10.56,14.8H9.49l-.78-3a2.74,2.74,0,0,1-.07-.5h0a4,4,0,0,1-.08.5l-.8,3H6.64L5.43,10.26H6.49l.67,3.08a3,3,0,0,1,.06.51h0a2.18,2.18,0,0,1,.09-.53l.84-3.06h1l.77,3.1a3.61,3.61,0,0,1,.07.48h0a2.74,2.74,0,0,1,.07-.5l.66-3.08Z"/><path class="cls-3" d="M14.94,11.05H13.32v1.17h1.49V13H13.32V14.8h-1V10.26h2.59Z"/></svg>