<?xml version="1.0" encoding="UTF-8"?>
<svg width="32px" height="32px" viewBox="0 0 32 32" version="1.1" xmlns="http://www.w3.org/2000/svg" xmlns:xlink="http://www.w3.org/1999/xlink">
    <g id="1，云主机-创建云主机" stroke="none" stroke-width="1" fill="none" fill-rule="evenodd" transform="translate(-673.000000, -667.000000)">
        <g id="Group-33" transform="translate(199.000000, 379.000000)" fill="#1CAFC6">
            <g id="Group-29" transform="translate(452.000000, 266.000000)">
                <path d="M42.919268,36.1620141 C41.407621,37.0300555 40.4945996,35.5551116 40.4945996,35.5551116 L45.5455025,32.6124885 L38.8914741,28.7523451 L38.8914741,50.3076923 L26.9230769,43.395758 L33.1173625,39.8120683 C34.7355711,39.0154965 35.5022663,40.4525459 35.5022663,40.4525459 L30.4390225,43.395758 L37.14594,47.2476549 L37.1187119,25.6923077 L49.0769231,32.6085616 L42.919268,36.1620141 Z M22,37.9999041 C22,46.8366367 29.1634692,54 38.0000959,54 C46.8365308,54 54,46.8366367 54,37.9999041 C54,29.1633633 46.8365308,22 38.0000959,22 C29.1634692,22 22,29.1633633 22,37.9999041 Z" id="Fill-1"></path>
            </g>
        </g>
    </g>
</svg>