<svg id="图层_1" data-name="图层 1" xmlns="http://www.w3.org/2000/svg" viewBox="0 0 19.74 20"><defs><style>.cls-1,.cls-2{fill:#e8ad69;}.cls-1{fill-rule:evenodd;}.cls-3{fill:#fff;}</style></defs><title>txt</title><path class="cls-1" d="M15.78,0v3a.73.73,0,0,0,.73.72h3Z"/><path class="cls-1" d="M19.39,4.52H16.21a1.33,1.33,0,0,1-1.27-1.38V0H7.3a2,2,0,0,0-2,2V8h1V2a1,1,0,0,1,1-1h6.64V3.14a2.33,2.33,0,0,0,2.27,2.38h2.53V18a1,1,0,0,1-1,1H7.3a1,1,0,0,1-1-1V17h-1v1a2,2,0,0,0,2,2H17.74a2,2,0,0,0,2-2V4.52Z"/><path class="cls-2" d="M15,8H2a2,2,0,0,0-2,2v5a2,2,0,0,0,2,2H15a2,2,0,0,0,2-2V10A2,2,0,0,0,15,8Z"/><path class="cls-3" d="M6,11.05H4.7V14.8h-1V11.05H2.44v-.79H6Z"/><path class="cls-3" d="M8,11H7.58v3H8v.75H6.23v-.75h.38V11H6.23v-.75H8Z"/><path class="cls-3" d="M11.22,11.05H9.6v1.17h1.49V13H9.6V14.8h-1V10.26h2.59Z"/><path class="cls-3" d="M14.56,11.05H12.94v1.17h1.5V13h-1.5V14.8H12V10.26h2.58Z"/></svg>