<svg id="图层_1" data-name="图层 1" xmlns="http://www.w3.org/2000/svg" viewBox="0 0 19.74 20"><defs><style>.cls-1,.cls-2{fill:#8fbf76;}.cls-1{fill-rule:evenodd;}.cls-3{fill:#fff;}</style></defs><title>txt</title><path class="cls-1" d="M15.78,0v3a.72.72,0,0,0,.73.71h3Z"/><path class="cls-1" d="M19.39,4.52H16.21a1.33,1.33,0,0,1-1.27-1.38V0H7.3a2,2,0,0,0-2,2V8h1V2a1,1,0,0,1,1-1h6.64V3.14a2.33,2.33,0,0,0,2.27,2.38h2.53V18a1,1,0,0,1-1,1H7.3a1,1,0,0,1-1-1V17h-1v1a2,2,0,0,0,2,2H17.74a2,2,0,0,0,2-2V4.52Z"/><path class="cls-2" d="M15,8H2a2,2,0,0,0-2,2v5a2,2,0,0,0,2,2H15a2,2,0,0,0,2-2V10A2,2,0,0,0,15,8Z"/><path class="cls-3" d="M6.25,11.05H5V14.8H4V11.05H2.69v-.79H6.25Z"/><path class="cls-3" d="M10.5,14.8H9.35l-.81-1.51A1.11,1.11,0,0,1,8.45,13h0a2,2,0,0,1-.11.3l-.82,1.5H6.36l1.45-2.27L6.48,10.26H7.66l.68,1.39a3.18,3.18,0,0,1,.14.37h0q.06-.18.15-.39l.75-1.37h1.08L9.1,12.51Z"/><path class="cls-3" d="M14.31,11.05H13V14.8h-1V11.05H10.76v-.79h3.55Z"/></svg>