<?xml version="1.0" encoding="UTF-8"?>
<svg width="32px" height="33px" viewBox="0 0 32 33" version="1.1" xmlns="http://www.w3.org/2000/svg" xmlns:xlink="http://www.w3.org/1999/xlink">
    <g id="1，云主机-创建云主机" stroke="none" stroke-width="1" fill="none" fill-rule="evenodd" transform="translate(-673.000000, -401.000000)">
        <g id="Group-33" transform="translate(199.000000, 379.000000)" fill="#1CAFC6" fill-rule="nonzero">
            <g id="Group-31" transform="translate(452.000000, 0.000000)">
                <g id="ubuntu-copy-3" transform="translate(22.000000, 22.000000)">
                    <path d="M18.7279355,8.19214956 C17.5862145,8.19214956 16.5001657,8.43685016 15.5183917,8.87926169 L12.8063625,4.16611591 C14.5914061,3.27065366 16.6035568,2.76529379 18.7279355,2.76529379 C19.5753894,2.76529379 20.4034022,2.84597406 21.2066718,2.99935519 C21.1934165,3.14564357 21.1863471,3.29370516 21.1863471,3.44353992 C21.1863471,6.08825661 23.3354689,8.24445876 25.9715011,8.24445876 C27.0062962,8.24445876 27.9650944,7.9119852 28.748923,7.34810993 C30.5710814,9.44136372 31.7543355,12.1055856 31.9902794,15.0322398 L26.5715233,15.1998065 C26.1190766,11.2650923 22.7699105,8.19214956 18.7279355,8.19214956 Z M25.9715011,6.88707987 C24.0804153,6.88707987 22.538385,5.34085596 22.538385,3.44353992 C22.538385,1.5471105 24.0804153,0 25.9715011,0 C27.8625869,0 29.4046172,1.5471105 29.4046172,3.44353992 C29.4046172,5.34085596 27.8625869,6.88707987 25.9715011,6.88707987 Z M10.833094,16.1121141 C10.833094,18.615862 12.0013255,20.853631 13.8190655,22.3067623 L11.1361979,27.0606915 C8.82271067,25.4408801 7.04296915,23.1038124 6.12128577,20.3748691 C7.38495526,19.5095511 8.21827015,18.0528734 8.21827015,16.4073507 C8.21827015,14.6962199 7.3177952,13.1898928 5.96752456,12.339647 C6.81939688,9.4511163 8.62211424,6.96510032 11.0107147,5.25042314 L13.8676682,9.87845569 C12.0216503,11.3298138 10.833094,13.587088 10.833094,16.1121141 Z M3.43223239,19.8517772 C1.54203026,19.8517772 0,18.3046668 0,16.4073507 C0,14.5109212 1.54203026,12.9638108 3.43223239,12.9638108 C5.32420193,12.9638108 6.86534852,14.5109212 6.86534852,16.4073507 C6.86534852,18.3046668 5.32420193,19.8517772 3.43223239,19.8517772 Z M18.7279355,24.0320787 C22.7893516,24.0320787 26.1508892,20.9298783 26.5785927,16.9667929 L32,17.0527927 C31.7773114,20.2356734 30.4341103,23.1171113 28.36452,25.2999114 C27.70264,24.9523656 26.9506241,24.7555412 26.1553076,24.7555412 C23.6421076,24.7555412 21.5698664,26.7158056 21.3834088,29.1902958 C20.524467,29.3658418 19.6372473,29.4589345 18.7279355,29.4589345 C16.64509,29.4589345 14.6700541,28.9730797 12.9124047,28.1104216 L15.6120623,23.3866365 C16.5690931,23.8015636 17.6233293,24.0320787 18.7279355,24.0320787 Z M26.1553076,26.1120335 C28.0455097,26.1120335 29.58754,27.659144 29.58754,29.5564601 C29.58754,31.4520029 28.0455097,33 26.1553076,33 C24.2642218,33 22.7221915,31.4520029 22.7221915,29.5564601 C22.7221915,27.659144 24.2642218,26.1120335 26.1553076,26.1120335 Z" id="Shape"></path>
                </g>
            </g>
        </g>
    </g>
</svg>