<?xml version="1.0" encoding="UTF-8"?>
<svg width="32px" height="27px" viewBox="0 0 32 27" version="1.1" xmlns="http://www.w3.org/2000/svg" xmlns:xlink="http://www.w3.org/1999/xlink">
    <g id="Page-1" stroke="none" stroke-width="1" fill="none" fill-rule="evenodd">
        <g id="视频管理" fill="#000000" fill-rule="nonzero">
            <path d="M32,17.45604 C30.9082667,15.61383 30.9258667,15.579 30.9258667,15.579 C30.9258667,15.579 27.1570667,16.64901 26.4552,12.99132 L24.2717333,12.99132 C24.2717333,12.99132 23.6696,16.65468 19.8189333,15.57009 C18.7056,17.44875 18.6677333,17.50761 18.6666667,17.50869 C18.6682667,17.50977 21.6808,19.64088 18.6666667,22.53501 L19.8365333,24.48252 C19.8365333,24.48252 23.1645333,23.02884 24.2546667,27 L26.464,27 C26.464,27 27.1570667,23.35068 30.8997333,24.4296 C31.9653333,22.58766 31.9826667,22.56984 31.9826667,22.56984 C31.9826667,22.56984 29.1570667,20.10366 32,17.45604 Z M25.316,22.57443 C23.9096,22.57443 22.7688,21.41991 22.7688,19.99539 C22.7688,18.57087 23.9093333,17.41608 25.316,17.41608 C26.7226667,17.41608 27.8634667,18.57087 27.8634667,19.99539 C27.8634667,21.41991 26.7226667,22.57443 25.316,22.57443 Z M12.4562667,9.19647 C12.3282667,9.27612 12.2581333,9.41463 12.2581333,9.55638 L12.2581333,17.44335 C12.2581333,17.5851 12.3282667,17.72361 12.4562667,17.8038 C12.5842667,17.88372 12.7376,17.88534 12.8624,17.82189 L17.8666667,15.28875 L17.8666667,12.69 L19.8,12.69 L12.8624,9.17811 C12.7378667,9.11466 12.5845333,9.11655 12.4562667,9.19647 Z M0,0 L0,27 L17.8666667,27 L17.8666667,23.625 L4,23.625 L4,3.375 L28,3.375 L28,12.69 L32,12.69 L32,0 L0,0 Z" id="Shape"></path>
        </g>
    </g>
</svg>