<?xml version="1.0" encoding="UTF-8"?>
<svg width="12px" height="12px" viewBox="0 0 12 12" version="1.1" xmlns="http://www.w3.org/2000/svg" xmlns:xlink="http://www.w3.org/1999/xlink">
    <g id="Page-1" stroke="none" stroke-width="1" fill="none" fill-rule="evenodd">
        <g id="画板" transform="translate(-38.000000, -38.000000)" fill="#FFFFFF" fill-rule="nonzero">
            <path d="M47.4285714,49.1428571 L47.4285714,50 L40.5714286,50 L40.5714286,49.1428571 L38.8571429,49.1428571 L38.8571429,48.2857143 L40.5714286,48.2857143 L40.5714286,47.4285714 L47.4285714,47.4285714 L47.4285714,48.2857143 L49.1428571,48.2857143 L49.1428571,49.1428571 L47.4285714,49.1428571 Z M38.8571429,38.8571429 L38.8571429,45.7142857 L49.1428571,45.7142857 L49.1428571,38.8571429 L38.8571429,38.8571429 Z M38.4285714,38 L49.5714286,38 C49.808122,38 50,38.191878 50,38.4285714 L50,46.1428571 C50,46.3795506 49.808122,46.5714286 49.5714286,46.5714286 L38.4285714,46.5714286 C38.191878,46.5714286 38,46.3795506 38,46.1428571 L38,38.4285714 C38,38.191878 38.191878,38 38.4285714,38 Z M42.2933243,40.5714286 L41.1025099,44 L40.2769081,44 L39.1015877,40.5714286 L39.8895615,40.5714286 L40.6310537,42.9951121 C40.667944,43.1146368 40.6908157,43.2275195 40.6996694,43.3337637 L40.7129498,43.3337637 C40.7247547,43.2245683 40.7498398,43.1087344 40.7882058,42.9862584 L41.529698,40.5714286 L42.2933243,40.5714286 Z M43.5236426,42.8047588 L43.5236426,44 L42.7932175,44 L42.7932175,40.5714286 L43.9729648,40.5714286 C44.8258695,40.5714286 45.2523155,40.9329485 45.2523155,41.6559993 C45.2523155,42.0071953 45.1235701,42.2886644 44.8660755,42.500415 C44.6085809,42.7121656 44.2865331,42.8136125 43.8999222,42.8047588 L43.5236426,42.8047588 Z M43.5236426,41.1380614 L43.5236426,42.2447662 L43.8401602,42.2447662 C44.2695638,42.2447662 44.4842624,42.0581039 44.4842624,41.6847736 C44.4842624,41.320297 44.2717772,41.1380614 43.8468004,41.1380614 L43.5236426,41.1380614 Z M48.7559774,44 L48.007845,44 L46.5558483,41.7821636 C46.480592,41.6670657 46.4259951,41.5741035 46.392056,41.503274 L46.380989,41.503274 C46.3942695,41.6213231 46.4009096,41.8035587 46.4009096,42.0499862 L46.4009096,44 L45.7081124,44 L45.7081124,40.5714286 L46.5049399,40.5714286 L47.9038147,42.7272895 C47.9967784,42.870424 48.0535887,42.9611729 48.0742473,42.9995389 L48.0853143,42.9995389 C48.0705582,42.9169045 48.0631802,42.7590162 48.0631802,42.5258692 L48.0631802,40.5714286 L48.7559774,40.5714286 L48.7559774,44 Z M41.4285714,48.2857143 L41.4285714,49.1428571 L46.5714286,49.1428571 L46.5714286,48.2857143 L41.4285714,48.2857143 Z" id="合并形状-copy"></path>
        </g>
    </g>
</svg>