<svg id="图层_1" data-name="图层 1" xmlns="http://www.w3.org/2000/svg" viewBox="0 0 19.74 20"><defs><style>.cls-1,.cls-2{fill:#6289c6;}.cls-1{fill-rule:evenodd;}.cls-3{fill:#fff;}</style></defs><title>txt</title><path class="cls-1" d="M15.78,0v3a.73.73,0,0,0,.73.72h3Z"/><path class="cls-1" d="M19.39,4.52H16.21a1.33,1.33,0,0,1-1.27-1.38V0H7.3a2,2,0,0,0-2,2V8h1V2a1,1,0,0,1,1-1h6.64V3.14a2.33,2.33,0,0,0,2.27,2.38h2.53V18a1,1,0,0,1-1,1H7.3a1,1,0,0,1-1-1V17h-1v1a2,2,0,0,0,2,2H17.74a2,2,0,0,0,2-2V4.52Z"/><path class="cls-2" d="M15,8H2a2,2,0,0,0-2,2v5a2,2,0,0,0,2,2H15a2,2,0,0,0,2-2V10A2,2,0,0,0,15,8Z"/><path class="cls-3" d="M6.61,10.56,5.56,14.5H4.63L4,11.93a2,2,0,0,1-.07-.43h0a2.14,2.14,0,0,1-.07.43L3.12,14.5h-1l-1-3.94H2l.59,2.67a2.55,2.55,0,0,1,.05.44h0a2.67,2.67,0,0,1,.08-.45l.73-2.66h.9l.66,2.69a3,3,0,0,1,.07.42h0a3,3,0,0,1,.06-.43l.57-2.68Z"/><path class="cls-3" d="M10.73,14.5V12.11c0-.22,0-.5,0-.83h0a4.09,4.09,0,0,1-.12.5l-1,2.72H9L8,11.81c0-.07-.06-.24-.12-.53h0q0,.49,0,1V14.5H7.12V10.56H8.34l.85,2.38a3.35,3.35,0,0,1,.15.56h0a5.58,5.58,0,0,1,.17-.56l.85-2.38h1.19V14.5Z"/><path class="cls-3" d="M15.9,14.5H15l-.29-.9H13.26l-.29.9h-.91l1.44-3.94h1ZM14.49,13,14,11.58a1.31,1.31,0,0,1-.06-.34h0a1.3,1.3,0,0,1-.07.33L13.44,13Z"/></svg>