<svg id="图层_1" data-name="图层 1" xmlns="http://www.w3.org/2000/svg" viewBox="0 0 19.74 20"><defs><style>.cls-1,.cls-2{fill:#8fbf76;}.cls-1{fill-rule:evenodd;}.cls-3{fill:#fff;}</style></defs><title>txt</title><path class="cls-1" d="M15.78,0v3a.73.73,0,0,0,.73.72h3Z"/><path class="cls-1" d="M19.39,4.52H16.21a1.33,1.33,0,0,1-1.27-1.38V0H7.3a2,2,0,0,0-2,2V8h1V2a1,1,0,0,1,1-1h6.64V3.14a2.33,2.33,0,0,0,2.27,2.38h2.53V18a1,1,0,0,1-1,1H7.3a1,1,0,0,1-1-1V17h-1v1a2,2,0,0,0,2,2H17.74a2,2,0,0,0,2-2V4.52Z"/><path class="cls-2" d="M15,8H2a2,2,0,0,0-2,2v5a2,2,0,0,0,2,2H15a2,2,0,0,0,2-2V10A2,2,0,0,0,15,8Z"/><path class="cls-3" d="M7.23,14.8H6.08l-.81-1.51A1.11,1.11,0,0,1,5.18,13h0a2,2,0,0,1-.11.3l-.82,1.5H3.09l1.45-2.27L3.21,10.26H4.39l.68,1.39a3.18,3.18,0,0,1,.14.37h0q.06-.18.15-.39l.75-1.37H7.2L5.83,12.51Z"/><path class="cls-3" d="M10.45,14.8H7.79V10.26h1V14h1.69Z"/><path class="cls-3" d="M10.86,13.65a1.88,1.88,0,0,0,1.25.46A1,1,0,0,0,12.7,14a.41.41,0,0,0,.2-.35.49.49,0,0,0-.16-.35,2.93,2.93,0,0,0-.83-.44c-.71-.3-1.07-.74-1.07-1.31a1.14,1.14,0,0,1,.49-1,2.12,2.12,0,0,1,1.27-.35,3,3,0,0,1,1.12.18v.9A1.92,1.92,0,0,0,12.65,11a1.14,1.14,0,0,0-.57.13.42.42,0,0,0-.22.35.46.46,0,0,0,.15.33,2.84,2.84,0,0,0,.72.4,2.25,2.25,0,0,1,.93.61,1.21,1.21,0,0,1,.26.77,1.15,1.15,0,0,1-.47,1,2.13,2.13,0,0,1-1.31.35,2.8,2.8,0,0,1-1.28-.26Z"/></svg>