<svg id="图层_1" data-name="图层 1" xmlns="http://www.w3.org/2000/svg" viewBox="0 0 19.74 20"><defs><style>.cls-1,.cls-2{fill:#7f82be;}.cls-1{fill-rule:evenodd;}.cls-3{fill:#fff;}</style></defs><title>txt</title><path class="cls-1" d="M15.78,0v3a.73.73,0,0,0,.73.72h3Z"/><path class="cls-1" d="M19.39,4.52H16.21a1.33,1.33,0,0,1-1.27-1.38V0H7.3a2,2,0,0,0-2,2V8h1V2a1,1,0,0,1,1-1h6.64V3.14a2.33,2.33,0,0,0,2.27,2.38h2.53V18a1,1,0,0,1-1,1H7.3a1,1,0,0,1-1-1V17h-1v1a2,2,0,0,0,2,2H17.74a2,2,0,0,0,2-2V4.52Z"/><path class="cls-2" d="M15,8H2a2,2,0,0,0-2,2v5a2,2,0,0,0,2,2H15a2,2,0,0,0,2-2V10A2,2,0,0,0,15,8Z"/><path class="cls-3" d="M7.35,10.79,5,14H7.34v.79H3.72v-.54l2.36-3.21H3.89v-.79H7.35Z"/><path class="cls-3" d="M9.37,11H9v3h.39v.75H7.63v-.75H8V11H7.63v-.75H9.37Z"/><path class="cls-3" d="M11,13.22V14.8H10V10.26h1.56c1.13,0,1.7.48,1.7,1.44a1.37,1.37,0,0,1-.51,1.11,1.89,1.89,0,0,1-1.28.41ZM11,11v1.47h.42c.57,0,.85-.25.85-.75S12,11,11.43,11Z"/></svg>